<svg width="173" height="173" viewBox="0 0 173 173" fill="none" xmlns="http://www.w3.org/2000/svg">
<circle cx="86.5" cy="86.5" r="86.5" fill="url(#paint0_linear_967_360)"/>
<path d="M31.0125 118.896C40.4796 113.984 60.0502 105.744 84.7532 105.744C109.456 105.744 129.027 113.984 138.494 118.896C147.711 123.678 155.123 129.316 158.614 133.917C159.887 132.183 158.019 101.336 152.85 89.1031C145.271 71.1256 132.561 55.7859 116.312 45.0056C100.062 34.2253 80.9957 28.4837 61.5007 28.5C54.5665 28.481 47.6974 29.8388 41.291 32.4947C34.8845 35.1507 29.0681 39.0521 24.1783 43.973C23.9706 44.1809 23.7648 44.3902 23.561 44.6009C12.6203 55.9127 7.51176 71.6504 9.37691 87.2831C10.7048 98.4129 13.9775 121.692 18.6016 126.628C22.5172 123.711 26.6685 121.124 31.0125 118.896V118.896Z" fill="#E0E0E0"/>
<path d="M85.8533 113.378C94.5399 113.378 101.582 111.907 101.582 110.093C101.582 108.28 94.5399 106.809 85.8533 106.809C77.1667 106.809 70.1248 108.28 70.1248 110.093C70.1248 111.907 77.1667 113.378 85.8533 113.378Z" fill="#F2F2F2"/>
<path d="M101.832 35.894C87.4134 35.8927 76.1193 33.2766 76.1196 29.9381C76.1198 27.9365 80.1219 26.151 87.0997 25.0396C87.1246 25.0355 87.1501 25.0363 87.1748 25.0421C87.1994 25.0479 87.2226 25.0585 87.2431 25.0733C87.2636 25.0881 87.281 25.1068 87.2943 25.1284C87.3075 25.1499 87.3164 25.1739 87.3204 25.1989C87.3244 25.2239 87.3234 25.2494 87.3174 25.274C87.3115 25.2986 87.3008 25.3218 87.2859 25.3423C87.271 25.3627 87.2522 25.38 87.2306 25.3932C87.209 25.4063 87.185 25.4151 87.16 25.4189C80.5869 26.466 76.5036 28.1976 76.5034 29.9381C76.5031 32.9571 88.102 35.5087 101.832 35.5099C115.561 35.5112 127.16 32.9617 127.161 29.9427C127.161 28.1949 123.052 26.4583 116.437 25.4107C116.412 25.4068 116.388 25.398 116.366 25.3849C116.345 25.3717 116.326 25.3544 116.311 25.334C116.296 25.3136 116.286 25.2904 116.28 25.2659C116.274 25.2413 116.273 25.2158 116.277 25.1909C116.281 25.1659 116.29 25.142 116.303 25.1204C116.316 25.0989 116.333 25.0802 116.354 25.0653C116.374 25.0505 116.397 25.0399 116.422 25.034C116.446 25.0282 116.472 25.0272 116.497 25.0313C123.518 26.1432 127.545 27.9334 127.545 29.9427C127.544 33.2812 116.25 35.8953 101.832 35.894Z" fill="#E0E0E0"/>
<path d="M89.0752 37.0142C90.3795 39.2501 92.2476 41.104 94.4927 42.3904C96.7377 43.6768 99.2808 44.3506 101.868 44.3443C104.455 44.338 106.994 43.6519 109.233 42.3546C111.472 41.0573 113.331 39.1943 114.625 36.952C106.116 37.4413 97.5863 37.462 89.0752 37.0142V37.0142Z" fill="#6459E9"/>
<path d="M116.039 32.846C116.668 30.6391 116.775 28.316 116.352 26.0605C115.929 23.8049 114.987 21.6789 113.601 19.8507C112.215 18.0225 110.423 16.5423 108.367 15.5272C106.31 14.5121 104.046 13.99 101.753 14.0022C99.4602 14.0144 97.2016 14.5605 95.1561 15.5975C93.1105 16.6344 91.3342 18.1336 89.9677 19.9764C88.6011 21.8193 87.6819 23.9552 87.2827 26.2151C86.8836 28.475 87.0154 30.7969 87.6678 32.9969C97.0917 34.1749 106.628 34.1242 116.039 32.846V32.846Z" fill="#6459E9"/>
<path d="M105.287 22.2582C106.241 22.2582 107.014 21.4843 107.014 20.5297C107.014 19.5751 106.241 18.8013 105.287 18.8013C104.333 18.8013 103.56 19.5751 103.56 20.5297C103.56 21.4843 104.333 22.2582 105.287 22.2582Z" fill="#3D3D3D"/>
<path d="M96.2677 30.516C97.8573 30.516 99.1459 29.2262 99.1459 27.6352C99.1459 26.0442 97.8573 24.7544 96.2677 24.7544C94.678 24.7544 93.3894 26.0442 93.3894 27.6352C93.3894 29.2262 94.678 30.516 96.2677 30.516Z" fill="#3D3D3D"/>
<path d="M101.833 42.9999C102.787 42.9999 103.56 42.226 103.56 41.2714C103.56 40.3168 102.787 39.543 101.833 39.543C100.879 39.543 100.106 40.3168 100.106 41.2714C100.106 42.226 100.879 42.9999 101.833 42.9999Z" fill="#3D3D3D"/>
<path d="M86.2986 111.836C92.1912 111.836 96.9682 111.043 96.9682 110.065C96.9682 109.088 92.1912 108.295 86.2986 108.295C80.4059 108.295 75.6289 109.088 75.6289 110.065C75.6289 111.043 80.4059 111.836 86.2986 111.836Z" fill="#E6E6E6"/>
<path d="M20.0883 76.6091C20.8301 76.6091 21.4315 76.0072 21.4315 75.2648C21.4315 74.5223 20.8301 73.9204 20.0883 73.9204C19.3465 73.9204 18.7451 74.5223 18.7451 75.2648C18.7451 76.0072 19.3465 76.6091 20.0883 76.6091Z" fill="#3D3D3D"/>
<path d="M114.112 96.1984C114.853 96.1984 115.455 95.5965 115.455 94.854C115.455 94.1115 114.853 93.5096 114.112 93.5096C113.37 93.5096 112.768 94.1115 112.768 94.854C112.768 95.5965 113.37 96.1984 114.112 96.1984Z" fill="#3D3D3D"/>
<path d="M30.9297 98.8871H30.2581V98.2149C30.2581 97.9857 30.1671 97.7659 30.0052 97.6038C29.8433 97.4418 29.6237 97.3507 29.3946 97.3507C29.1656 97.3507 28.946 97.4418 28.7841 97.6038C28.6221 97.7659 28.5312 97.9857 28.5312 98.2149V98.8871H27.8596C27.6306 98.8871 27.4109 98.9782 27.249 99.1402C27.0871 99.3023 26.9961 99.5222 26.9961 99.7514C26.9961 99.9806 27.0871 100.2 27.249 100.362C27.4109 100.525 27.6306 100.616 27.8596 100.616H28.5312V101.288C28.5312 101.517 28.6221 101.737 28.7841 101.899C28.946 102.061 29.1656 102.152 29.3946 102.152C29.6237 102.152 29.8433 102.061 30.0052 101.899C30.1671 101.737 30.2581 101.517 30.2581 101.288V100.616H30.9297C31.1587 100.616 31.3784 100.525 31.5403 100.362C31.7022 100.2 31.7932 99.9806 31.7932 99.7514C31.7932 99.5222 31.7022 99.3023 31.5403 99.1402C31.3784 98.9782 31.1587 98.8871 30.9297 98.8871Z" fill="#3D3D3D"/>
<path d="M120.828 62.8947H120.157V62.2225C120.157 61.9933 120.066 61.7735 119.904 61.6114C119.742 61.4493 119.522 61.3583 119.293 61.3583C119.064 61.3583 118.845 61.4493 118.683 61.6114C118.521 61.7735 118.43 61.9933 118.43 62.2225V62.8947H117.758C117.529 62.8947 117.31 62.9857 117.148 63.1478C116.986 63.3099 116.895 63.5297 116.895 63.7589C116.895 63.9881 116.986 64.208 117.148 64.37C117.31 64.5321 117.529 64.6232 117.758 64.6232H118.43V65.2953C118.43 65.5246 118.521 65.7444 118.683 65.9065C118.845 66.0685 119.064 66.1596 119.293 66.1596C119.522 66.1596 119.742 66.0685 119.904 65.9065C120.066 65.7444 120.157 65.5246 120.157 65.2953V64.6232H120.828C121.057 64.6232 121.277 64.5321 121.439 64.37C121.601 64.208 121.692 63.9881 121.692 63.7589C121.692 63.5297 121.601 63.3099 121.439 63.1478C121.277 62.9857 121.057 62.8947 120.828 62.8947Z" fill="#3D3D3D"/>
<path d="M129.781 82.4014H129.431V82.0518C129.431 81.9326 129.384 81.8183 129.3 81.734C129.216 81.6498 129.101 81.6024 128.982 81.6024C128.863 81.6024 128.749 81.6498 128.665 81.734C128.581 81.8183 128.533 81.9326 128.533 82.0518V82.4014H128.184C128.065 82.4014 127.951 82.4487 127.867 82.533C127.782 82.6173 127.735 82.7316 127.735 82.8508C127.735 82.9699 127.782 83.0843 127.867 83.1685C127.951 83.2528 128.065 83.3002 128.184 83.3002H128.533V83.6497C128.533 83.7689 128.581 83.8832 128.665 83.9675C128.749 84.0517 128.863 84.0991 128.982 84.0991C129.101 84.0991 129.216 84.0517 129.3 83.9675C129.384 83.8832 129.431 83.7689 129.431 83.6497V83.3002H129.781C129.9 83.3002 130.014 83.2528 130.098 83.1685C130.182 83.0843 130.23 82.9699 130.23 82.8508C130.23 82.7316 130.182 82.6173 130.098 82.533C130.014 82.4487 129.9 82.4014 129.781 82.4014V82.4014Z" fill="#FF6584"/>
<path d="M27.8905 59.1631H27.5412V58.8135C27.5412 58.7545 27.5296 58.6961 27.507 58.6416C27.4845 58.587 27.4514 58.5375 27.4097 58.4958C27.368 58.454 27.3185 58.4209 27.264 58.3983C27.2096 58.3758 27.1512 58.3641 27.0922 58.3641C27.0333 58.3641 26.9749 58.3758 26.9204 58.3983C26.8659 58.4209 26.8164 58.454 26.7747 58.4958C26.733 58.5375 26.7 58.587 26.6774 58.6416C26.6548 58.6961 26.6432 58.7545 26.6432 58.8135V59.1631H26.294C26.1749 59.1631 26.0607 59.2104 25.9765 59.2947C25.8923 59.379 25.845 59.4933 25.845 59.6125C25.845 59.7317 25.8923 59.846 25.9765 59.9303C26.0607 60.0145 26.1749 60.0619 26.294 60.0619H26.6432V60.4114C26.6432 60.4704 26.6548 60.5289 26.6774 60.5834C26.7 60.6379 26.733 60.6875 26.7747 60.7292C26.8164 60.7709 26.8659 60.804 26.9204 60.8266C26.9749 60.8492 27.0333 60.8608 27.0922 60.8608C27.1512 60.8608 27.2096 60.8492 27.264 60.8266C27.3185 60.804 27.368 60.7709 27.4097 60.7292C27.4514 60.6875 27.4845 60.6379 27.507 60.5834C27.5296 60.5289 27.5412 60.4704 27.5412 60.4114V60.0619H27.8905C28.0095 60.0619 28.1237 60.0145 28.208 59.9303C28.2922 59.846 28.3395 59.7317 28.3395 59.6125C28.3395 59.4933 28.2922 59.379 28.208 59.2947C28.1237 59.2104 28.0095 59.1631 27.8905 59.1631V59.1631Z" fill="#E0E0E0"/>
<path d="M53.7948 59.1631H53.4455V58.8135C53.4455 58.6943 53.3982 58.58 53.314 58.4958C53.2298 58.4115 53.1156 58.3641 52.9965 58.3641C52.8774 58.3641 52.7632 58.4115 52.679 58.4958C52.5948 58.58 52.5475 58.6943 52.5475 58.8135V59.1631H52.1983C52.0792 59.1631 51.965 59.2104 51.8808 59.2947C51.7966 59.379 51.7493 59.4933 51.7493 59.6125C51.7493 59.7317 51.7966 59.846 51.8808 59.9303C51.965 60.0145 52.0792 60.0619 52.1983 60.0619H52.5475V60.4114C52.5475 60.5306 52.5948 60.6449 52.679 60.7292C52.7632 60.8135 52.8774 60.8608 52.9965 60.8608C53.1156 60.8608 53.2298 60.8135 53.314 60.7292C53.3982 60.6449 53.4455 60.5306 53.4455 60.4114V60.0619H53.7948C53.9138 60.0619 54.028 60.0145 54.1122 59.9303C54.1965 59.846 54.2438 59.7317 54.2438 59.6125C54.2438 59.4933 54.1965 59.379 54.1122 59.2947C54.028 59.2104 53.9138 59.1631 53.7948 59.1631V59.1631Z" fill="#3D3D3D"/>
<path d="M143.021 105.256H142.671V104.906C142.671 104.787 142.624 104.673 142.54 104.588C142.456 104.504 142.341 104.457 142.222 104.457C142.103 104.457 141.989 104.504 141.905 104.588C141.821 104.673 141.773 104.787 141.773 104.906V105.256H141.424C141.305 105.256 141.191 105.303 141.107 105.387C141.022 105.472 140.975 105.586 140.975 105.705C140.975 105.824 141.022 105.938 141.107 106.023C141.191 106.107 141.305 106.154 141.424 106.154H141.773V106.504C141.773 106.623 141.821 106.737 141.905 106.822C141.989 106.906 142.103 106.953 142.222 106.953C142.341 106.953 142.456 106.906 142.54 106.822C142.624 106.737 142.671 106.623 142.671 106.504V106.154H143.021C143.14 106.154 143.254 106.107 143.338 106.023C143.422 105.938 143.47 105.824 143.47 105.705C143.47 105.586 143.422 105.472 143.338 105.387C143.254 105.303 143.14 105.256 143.021 105.256V105.256Z" fill="#3D3D3D"/>
<path d="M102.725 67.8054H102.376V67.4559C102.376 67.3367 102.329 67.2224 102.244 67.1381C102.16 67.0538 102.046 67.0065 101.927 67.0065C101.808 67.0065 101.694 67.0538 101.609 67.1381C101.525 67.2224 101.478 67.3367 101.478 67.4559V67.8054H101.129C101.01 67.8054 100.895 67.8528 100.811 67.937C100.727 68.0213 100.68 68.1356 100.68 68.2548C100.68 68.374 100.727 68.4883 100.811 68.5726C100.895 68.6569 101.01 68.7042 101.129 68.7042H101.478V69.0537C101.478 69.1729 101.525 69.2872 101.609 69.3715C101.694 69.4558 101.808 69.5032 101.927 69.5032C102.046 69.5032 102.16 69.4558 102.244 69.3715C102.329 69.2872 102.376 69.1729 102.376 69.0537V68.7042H102.725C102.844 68.7042 102.958 68.6569 103.043 68.5726C103.127 68.4883 103.174 68.374 103.174 68.2548C103.174 68.1356 103.127 68.0213 103.043 67.937C102.958 67.8528 102.844 67.8054 102.725 67.8054V67.8054Z" fill="#3D3D3D"/>
<path d="M41.1304 77.4081H40.7812V77.0585C40.7812 76.9393 40.7339 76.825 40.6497 76.7408C40.5655 76.6565 40.4513 76.6091 40.3322 76.6091C40.2131 76.6091 40.0989 76.6565 40.0147 76.7408C39.9305 76.825 39.8832 76.9393 39.8832 77.0585V77.4081H39.534C39.4149 77.4081 39.3007 77.4554 39.2165 77.5397C39.1323 77.624 39.085 77.7383 39.085 77.8575C39.085 77.9767 39.1323 78.091 39.2165 78.1753C39.3007 78.2595 39.4149 78.3069 39.534 78.3069H39.8832V78.6564C39.8832 78.7756 39.9305 78.8899 40.0147 78.9742C40.0989 79.0585 40.2131 79.1058 40.3322 79.1058C40.4513 79.1058 40.5655 79.0585 40.6497 78.9742C40.7339 78.8899 40.7812 78.7756 40.7812 78.6564V78.3069H41.1304C41.2495 78.3069 41.3637 78.2595 41.4479 78.1753C41.5321 78.091 41.5795 77.9767 41.5795 77.8575C41.5795 77.7383 41.5321 77.624 41.4479 77.5397C41.3637 77.4554 41.2495 77.4081 41.1304 77.4081V77.4081Z" fill="#3D3D3D"/>
<path d="M42.2816 45.5273H41.9323V45.1778C41.9323 45.0586 41.885 44.9443 41.8008 44.86C41.7166 44.7757 41.6024 44.7284 41.4833 44.7284C41.3642 44.7284 41.25 44.7757 41.1658 44.86C41.0816 44.9443 41.0343 45.0586 41.0343 45.1778V45.5273H40.6851C40.566 45.5273 40.4518 45.5747 40.3676 45.659C40.2834 45.7432 40.2361 45.8575 40.2361 45.9767C40.2361 46.0959 40.2834 46.2102 40.3676 46.2945C40.4518 46.3788 40.566 46.4261 40.6851 46.4261H41.0343V46.7757C41.0343 46.8949 41.0816 47.0092 41.1658 47.0934C41.25 47.1777 41.3642 47.2251 41.4833 47.2251C41.6024 47.2251 41.7166 47.1777 41.8008 47.0934C41.885 47.0092 41.9323 46.8949 41.9323 46.7757V46.4261H42.2816C42.4007 46.4261 42.5149 46.3788 42.5991 46.2945C42.6833 46.2102 42.7306 46.0959 42.7306 45.9767C42.7306 45.8575 42.6833 45.7432 42.5991 45.659C42.5149 45.5747 42.4007 45.5273 42.2816 45.5273V45.5273Z" fill="#3D3D3D"/>
<path d="M121.17 96.5825H44.3883C42.9926 96.5825 41.654 97.1288 40.6671 98.1013C39.6802 99.0737 39.1257 100.393 39.1257 101.768C39.1257 103.143 39.6802 104.462 40.6671 105.435C41.654 106.407 42.9926 106.953 44.3883 106.953H121.17C121.918 106.954 122.656 106.796 123.337 106.493C124.018 106.189 124.625 105.746 125.118 105.192C125.341 104.942 125.54 104.671 125.711 104.384C125.843 104.164 125.958 103.933 126.054 103.696C126.375 102.909 126.495 102.057 126.403 101.214C126.312 100.371 126.012 99.563 125.53 98.8609C125.048 98.1587 124.398 97.5839 123.638 97.1867C122.878 96.7894 122.031 96.582 121.17 96.5825V96.5825Z" fill="#E0E0E0"/>
<path d="M126.049 104.265C124.348 106.245 122.507 108.106 120.541 109.834H45.0174C43.0515 108.106 41.2111 106.245 39.5095 104.265H126.049Z" fill="#3F3D56"/>
<path d="M89.1067 84.4833H76.4502C76.382 84.4826 76.3141 84.4931 76.2494 84.5146C76.112 84.5572 75.9918 84.6429 75.9065 84.7591C75.8213 84.8753 75.7754 85.0159 75.7756 85.1602V105.225H89.7832V85.1602C89.7831 85.0712 89.7655 84.983 89.7315 84.9008C89.6974 84.8186 89.6475 84.7439 89.5847 84.6811C89.5219 84.6182 89.4473 84.5684 89.3653 84.5344C89.2833 84.5005 89.1954 84.4831 89.1067 84.4833ZM84.3166 94.3826C84.3171 94.7081 84.2101 95.0245 84.0125 95.2826C83.8239 95.533 83.5617 95.7177 83.263 95.8107C82.9642 95.9037 82.6439 95.9002 82.3472 95.8008C82.0504 95.7014 81.7923 95.5111 81.6091 95.2567C81.4259 95.0022 81.3269 94.6965 81.326 94.3826V92.0545C81.3297 91.659 81.4888 91.2809 81.7688 91.0025C82.0489 90.724 82.4271 90.5678 82.8213 90.5678C83.2155 90.5678 83.5938 90.724 83.8738 91.0025C84.1538 91.2809 84.313 91.659 84.3166 92.0545V94.3826Z" fill="#2F2E41"/>
<path d="M75.5837 104.649V106.575C75.5837 106.675 75.6236 106.771 75.6946 106.842C75.7657 106.913 75.8621 106.953 75.9628 106.953H89.404C89.5047 106.952 89.6009 106.912 89.6719 106.842C89.7428 106.771 89.7828 106.675 89.7831 106.575V104.649H75.5837Z" fill="#3F3D56"/>
<path d="M110.271 52.9867H55.6717C55.2025 52.9873 54.7528 53.1735 54.4209 53.5046C54.089 53.8357 53.902 54.2847 53.9009 54.7532V91.5492C53.9012 92.0181 54.0879 92.4677 54.4199 92.7993C54.7519 93.1309 55.2021 93.3173 55.6717 93.3177H110.271C110.74 93.3173 111.191 93.1309 111.523 92.7993C111.855 92.4677 112.041 92.0181 112.042 91.5492V54.7532C112.041 54.2847 111.854 53.8357 111.522 53.5046C111.19 53.1735 110.74 52.9873 110.271 52.9867V52.9867Z" fill="#3F3D56"/>
<path d="M109.754 54.3311H56.1881C55.9375 54.3316 55.6974 54.4318 55.5204 54.6096C55.3433 54.7874 55.2439 55.0284 55.2439 55.2796V91.2188C55.2443 91.4697 55.3439 91.7102 55.5209 91.8876C55.6979 92.0651 55.9378 92.1649 56.1881 92.1654H109.754C110.004 92.1649 110.244 92.0651 110.421 91.8876C110.598 91.7102 110.698 91.4697 110.698 91.2188V55.2796C110.698 55.0284 110.599 54.7874 110.422 54.6096C110.245 54.4318 110.005 54.3316 109.754 54.3311V54.3311Z" fill="#C1B5F1"/>
<path d="M99.9409 106.989L99.4468 104.555C99.4263 104.455 99.3822 104.363 99.3185 104.286C99.2548 104.209 99.1735 104.149 99.082 104.113C99.0158 104.086 98.9453 104.073 98.8742 104.073H68.0281C67.957 104.073 67.8865 104.086 67.8203 104.113C67.7288 104.149 67.6475 104.209 67.5838 104.286C67.5201 104.363 67.476 104.455 67.4556 104.555L66.9614 106.989C66.9436 107.078 66.9449 107.169 66.9654 107.257C66.9859 107.345 67.025 107.427 67.0798 107.497C67.1346 107.567 67.2039 107.623 67.2824 107.662C67.361 107.701 67.4469 107.722 67.534 107.722H99.3664C99.4537 107.722 99.54 107.702 99.6188 107.663C99.6976 107.624 99.7668 107.567 99.8213 107.496C99.8762 107.426 99.9155 107.344 99.9362 107.257C99.9569 107.169 99.9585 107.078 99.9409 106.989V106.989Z" fill="#2F2E41"/>
<path d="M69.1392 104.649H68.2128C68.1507 104.649 68.1003 104.691 68.1003 104.742V105.131C68.1003 105.183 68.1507 105.225 68.2128 105.225H69.1392C69.2013 105.225 69.2516 105.183 69.2516 105.131V104.742C69.2516 104.691 69.2013 104.649 69.1392 104.649Z" fill="#3F3D56"/>
<path d="M71.0767 104.649H70.3046C70.2529 104.649 70.2109 104.691 70.2109 104.742V105.131C70.2109 105.183 70.2529 105.225 70.3046 105.225H71.0767C71.1284 105.225 71.1704 105.183 71.1704 105.131V104.742C71.1704 104.691 71.1284 104.649 71.0767 104.649Z" fill="#3F3D56"/>
<path d="M72.9956 104.649H72.2236C72.1718 104.649 72.1299 104.691 72.1299 104.742V105.131C72.1299 105.183 72.1718 105.225 72.2236 105.225H72.9956C73.0474 105.225 73.0893 105.183 73.0893 105.131V104.742C73.0893 104.691 73.0474 104.649 72.9956 104.649Z" fill="#3F3D56"/>
<path d="M74.9143 104.649H74.1423C74.0905 104.649 74.0486 104.691 74.0486 104.742V105.131C74.0486 105.183 74.0905 105.225 74.1423 105.225H74.9143C74.9661 105.225 75.008 105.183 75.008 105.131V104.742C75.008 104.691 74.9661 104.649 74.9143 104.649Z" fill="#3F3D56"/>
<path d="M76.8333 104.649H76.0612C76.0095 104.649 75.9675 104.691 75.9675 104.742V105.131C75.9675 105.183 76.0095 105.225 76.0612 105.225H76.8333C76.885 105.225 76.927 105.183 76.927 105.131V104.742C76.927 104.691 76.885 104.649 76.8333 104.649Z" fill="#3F3D56"/>
<path d="M78.9439 104.649H78.1718C78.1201 104.649 78.0781 104.691 78.0781 104.742V105.131C78.0781 105.183 78.1201 105.225 78.1718 105.225H78.9439C78.9956 105.225 79.0375 105.183 79.0375 105.131V104.742C79.0375 104.691 78.9956 104.649 78.9439 104.649Z" fill="#3F3D56"/>
<path d="M80.8628 104.649H80.0907C80.039 104.649 79.9971 104.691 79.9971 104.742V105.131C79.9971 105.183 80.039 105.225 80.0907 105.225H80.8628C80.9146 105.225 80.9565 105.183 80.9565 105.131V104.742C80.9565 104.691 80.9146 104.649 80.8628 104.649Z" fill="#3F3D56"/>
<path d="M82.7815 104.649H82.0094C81.9577 104.649 81.9158 104.691 81.9158 104.742V105.131C81.9158 105.183 81.9577 105.225 82.0094 105.225H82.7815C82.8333 105.225 82.8752 105.183 82.8752 105.131V104.742C82.8752 104.691 82.8333 104.649 82.7815 104.649Z" fill="#3F3D56"/>
<path d="M84.7005 104.649H83.9284C83.8767 104.649 83.8347 104.691 83.8347 104.742V105.131C83.8347 105.183 83.8767 105.225 83.9284 105.225H84.7005C84.7522 105.225 84.7941 105.183 84.7941 105.131V104.742C84.7941 104.691 84.7522 104.649 84.7005 104.649Z" fill="#3F3D56"/>
<path d="M86.7925 104.649H85.8661C85.804 104.649 85.7537 104.691 85.7537 104.742V105.131C85.7537 105.183 85.804 105.225 85.8661 105.225H86.7925C86.8546 105.225 86.905 105.183 86.905 105.131V104.742C86.905 104.691 86.8546 104.649 86.7925 104.649Z" fill="#3F3D56"/>
<path d="M88.73 104.649H87.9579C87.9062 104.649 87.8643 104.691 87.8643 104.742V105.131C87.8643 105.183 87.9062 105.225 87.9579 105.225H88.73C88.7817 105.225 88.8237 105.183 88.8237 105.131V104.742C88.8237 104.691 88.7817 104.649 88.73 104.649Z" fill="#3F3D56"/>
<path d="M90.6489 104.649H89.8769C89.8251 104.649 89.7832 104.691 89.7832 104.742V105.131C89.7832 105.183 89.8251 105.225 89.8769 105.225H90.6489C90.7007 105.225 90.7426 105.183 90.7426 105.131V104.742C90.7426 104.691 90.7007 104.649 90.6489 104.649Z" fill="#3F3D56"/>
<path d="M92.5676 104.649H91.7956C91.7438 104.649 91.7019 104.691 91.7019 104.742V105.131C91.7019 105.183 91.7438 105.225 91.7956 105.225H92.5676C92.6194 105.225 92.6613 105.183 92.6613 105.131V104.742C92.6613 104.691 92.6194 104.649 92.5676 104.649Z" fill="#3F3D56"/>
<path d="M94.4866 104.649H93.7145C93.6628 104.649 93.6208 104.691 93.6208 104.742V105.131C93.6208 105.183 93.6628 105.225 93.7145 105.225H94.4866C94.5383 105.225 94.5803 105.183 94.5803 105.131V104.742C94.5803 104.691 94.5383 104.649 94.4866 104.649Z" fill="#3F3D56"/>
<path d="M96.5972 104.649H95.8251C95.7734 104.649 95.7314 104.691 95.7314 104.742V105.131C95.7314 105.183 95.7734 105.225 95.8251 105.225H96.5972C96.6489 105.225 96.6909 105.183 96.6909 105.131V104.742C96.6909 104.691 96.6489 104.649 96.5972 104.649Z" fill="#3F3D56"/>
<path d="M98.5161 104.649H97.7441C97.6923 104.649 97.6504 104.691 97.6504 104.742V105.131C97.6504 105.183 97.6923 105.225 97.7441 105.225H98.5161C98.5679 105.225 98.6098 105.183 98.6098 105.131V104.742C98.6098 104.691 98.5679 104.649 98.5161 104.649Z" fill="#3F3D56"/>
<path d="M68.9661 105.609H68.194C68.1423 105.609 68.1003 105.651 68.1003 105.703V106.091C68.1003 106.143 68.1423 106.185 68.194 106.185H68.9661C69.0178 106.185 69.0598 106.143 69.0598 106.091V105.703C69.0598 105.651 69.0178 105.609 68.9661 105.609Z" fill="#3F3D56"/>
<path d="M71.0767 105.609H70.3046C70.2529 105.609 70.2109 105.651 70.2109 105.703V106.091C70.2109 106.143 70.2529 106.185 70.3046 106.185H71.0767C71.1284 106.185 71.1704 106.143 71.1704 106.091V105.703C71.1704 105.651 71.1284 105.609 71.0767 105.609Z" fill="#3F3D56"/>
<path d="M72.9956 105.609H72.2236C72.1718 105.609 72.1299 105.651 72.1299 105.703V106.091C72.1299 106.143 72.1718 106.185 72.2236 106.185H72.9956C73.0474 106.185 73.0893 106.143 73.0893 106.091V105.703C73.0893 105.651 73.0474 105.609 72.9956 105.609Z" fill="#3F3D56"/>
<path d="M74.9143 105.609H74.1423C74.0905 105.609 74.0486 105.651 74.0486 105.703V106.091C74.0486 106.143 74.0905 106.185 74.1423 106.185H74.9143C74.9661 106.185 75.008 106.143 75.008 106.091V105.703C75.008 105.651 74.9661 105.609 74.9143 105.609Z" fill="#3F3D56"/>
<path d="M76.8333 105.609H76.0612C76.0095 105.609 75.9675 105.651 75.9675 105.703V106.091C75.9675 106.143 76.0095 106.185 76.0612 106.185H76.8333C76.885 106.185 76.927 106.143 76.927 106.091V105.703C76.927 105.651 76.885 105.609 76.8333 105.609Z" fill="#3F3D56"/>
<path d="M78.9251 105.609H77.9986C77.9366 105.609 77.8862 105.651 77.8862 105.703V106.091C77.8862 106.143 77.9366 106.185 77.9986 106.185H78.9251C78.9872 106.185 79.0375 106.143 79.0375 106.091V105.703C79.0375 105.651 78.9872 105.609 78.9251 105.609Z" fill="#3F3D56"/>
<path d="M80.8628 105.609H80.0907C80.039 105.609 79.9971 105.651 79.9971 105.703V106.091C79.9971 106.143 80.039 106.185 80.0907 106.185H80.8628C80.9146 106.185 80.9565 106.143 80.9565 106.091V105.703C80.9565 105.651 80.9146 105.609 80.8628 105.609Z" fill="#3F3D56"/>
<path d="M82.7815 105.609H82.0094C81.9577 105.609 81.9158 105.651 81.9158 105.703V106.091C81.9158 106.143 81.9577 106.185 82.0094 106.185H82.7815C82.8333 106.185 82.8752 106.143 82.8752 106.091V105.703C82.8752 105.651 82.8333 105.609 82.7815 105.609Z" fill="#3F3D56"/>
<path d="M84.7005 105.609H83.9284C83.8767 105.609 83.8347 105.651 83.8347 105.703V106.091C83.8347 106.143 83.8767 106.185 83.9284 106.185H84.7005C84.7522 106.185 84.7941 106.143 84.7941 106.091V105.703C84.7941 105.651 84.7522 105.609 84.7005 105.609Z" fill="#3F3D56"/>
<path d="M86.6194 105.609H85.8473C85.7956 105.609 85.7537 105.651 85.7537 105.703V106.091C85.7537 106.143 85.7956 106.185 85.8473 106.185H86.6194C86.6711 106.185 86.7131 106.143 86.7131 106.091V105.703C86.7131 105.651 86.6711 105.609 86.6194 105.609Z" fill="#3F3D56"/>
<path d="M88.73 105.609H87.9579C87.9062 105.609 87.8643 105.651 87.8643 105.703V106.091C87.8643 106.143 87.9062 106.185 87.9579 106.185H88.73C88.7817 106.185 88.8237 106.143 88.8237 106.091V105.703C88.8237 105.651 88.7817 105.609 88.73 105.609Z" fill="#3F3D56"/>
<path d="M90.6489 105.609H89.8769C89.8251 105.609 89.7832 105.651 89.7832 105.703V106.091C89.7832 106.143 89.8251 106.185 89.8769 106.185H90.6489C90.7007 106.185 90.7426 106.143 90.7426 106.091V105.703C90.7426 105.651 90.7007 105.609 90.6489 105.609Z" fill="#3F3D56"/>
<path d="M92.5676 105.609H91.7956C91.7438 105.609 91.7019 105.651 91.7019 105.703V106.091C91.7019 106.143 91.7438 106.185 91.7956 106.185H92.5676C92.6194 106.185 92.6613 106.143 92.6613 106.091V105.703C92.6613 105.651 92.6194 105.609 92.5676 105.609Z" fill="#3F3D56"/>
<path d="M94.4866 105.609H93.7145C93.6628 105.609 93.6208 105.651 93.6208 105.703V106.091C93.6208 106.143 93.6628 106.185 93.7145 106.185H94.4866C94.5383 106.185 94.5803 106.143 94.5803 106.091V105.703C94.5803 105.651 94.5383 105.609 94.4866 105.609Z" fill="#3F3D56"/>
<path d="M96.5784 105.609H95.652C95.5899 105.609 95.5396 105.651 95.5396 105.703V106.091C95.5396 106.143 95.5899 106.185 95.652 106.185H96.5784C96.6405 106.185 96.6909 106.143 96.6909 106.091V105.703C96.6909 105.651 96.6405 105.609 96.5784 105.609Z" fill="#3F3D56"/>
<path d="M98.5161 105.609H97.7441C97.6923 105.609 97.6504 105.651 97.6504 105.703V106.091C97.6504 106.143 97.6923 106.185 97.7441 106.185H98.5161C98.5679 106.185 98.6098 106.143 98.6098 106.091V105.703C98.6098 105.651 98.5679 105.609 98.5161 105.609Z" fill="#3F3D56"/>
<path d="M85.2737 106.761H77.5985C77.5454 106.761 77.5024 106.803 77.5024 106.855V107.244C77.5024 107.296 77.5454 107.338 77.5985 107.338H85.2737C85.3267 107.338 85.3697 107.296 85.3697 107.244V106.855C85.3697 106.803 85.3267 106.761 85.2737 106.761Z" fill="#3F3D56"/>
<path d="M107.05 59.3244H56.9739C56.9218 59.3233 56.8723 59.3026 56.8359 59.2667C56.7994 59.2308 56.7791 59.1826 56.7791 59.1324C56.7791 59.0821 56.7994 59.0339 56.8359 58.998C56.8723 58.9621 56.9218 58.9414 56.9739 58.9403H107.05C107.102 58.9414 107.151 58.9621 107.188 58.998C107.224 59.0339 107.245 59.0821 107.245 59.1324C107.245 59.1826 107.224 59.2308 107.188 59.2667C107.151 59.3026 107.102 59.3233 107.05 59.3244V59.3244Z" fill="#3F3D56"/>
<path d="M60.425 57.7879C61.0608 57.7879 61.5763 57.272 61.5763 56.6356C61.5763 55.9992 61.0608 55.4833 60.425 55.4833C59.7891 55.4833 59.2737 55.9992 59.2737 56.6356C59.2737 57.272 59.7891 57.7879 60.425 57.7879Z" fill="#3F3D56"/>
<path d="M64.4545 57.7879C65.0904 57.7879 65.6058 57.272 65.6058 56.6356C65.6058 55.9992 65.0904 55.4833 64.4545 55.4833C63.8187 55.4833 63.3032 55.9992 63.3032 56.6356C63.3032 57.272 63.8187 57.7879 64.4545 57.7879Z" fill="#3F3D56"/>
<path d="M68.4841 57.7879C69.1199 57.7879 69.6354 57.272 69.6354 56.6356C69.6354 55.9992 69.1199 55.4833 68.4841 55.4833C67.8482 55.4833 67.3328 55.9992 67.3328 56.6356C67.3328 57.272 67.8482 57.7879 68.4841 57.7879Z" fill="#3F3D56"/>
<path d="M104.538 55.6754H101.698C101.642 55.6772 101.588 55.7083 101.549 55.7621C101.51 55.816 101.488 55.8882 101.488 55.9635C101.488 56.0388 101.51 56.111 101.549 56.1649C101.588 56.2187 101.642 56.2498 101.698 56.2516H104.538C104.595 56.2505 104.649 56.2197 104.688 56.1658C104.728 56.1119 104.75 56.0392 104.75 55.9635C104.75 55.8878 104.728 55.8151 104.688 55.7612C104.649 55.7073 104.595 55.6765 104.538 55.6754Z" fill="#3F3D56"/>
<path d="M104.538 56.6356H101.698C101.642 56.6367 101.589 56.6574 101.549 56.6933C101.51 56.7292 101.488 56.7775 101.488 56.8277C101.488 56.8779 101.51 56.9261 101.549 56.962C101.589 56.9979 101.642 57.0186 101.698 57.0197H104.538C104.594 57.0191 104.648 56.9986 104.688 56.9627C104.728 56.9267 104.75 56.8782 104.75 56.8277C104.75 56.7771 104.728 56.7286 104.688 56.6927C104.648 56.6567 104.594 56.6362 104.538 56.6356V56.6356Z" fill="#3F3D56"/>
<path d="M104.538 57.4038H101.698C101.642 57.405 101.588 57.4257 101.549 57.4616C101.51 57.4975 101.488 57.5457 101.488 57.5959C101.488 57.646 101.51 57.6942 101.549 57.7301C101.588 57.766 101.642 57.7867 101.698 57.7879H104.538C104.595 57.7872 104.649 57.7667 104.688 57.7307C104.728 57.6948 104.75 57.6463 104.75 57.5959C104.75 57.5454 104.728 57.4969 104.688 57.461C104.649 57.4251 104.595 57.4045 104.538 57.4038V57.4038Z" fill="#3F3D56"/>
<path d="M61.2156 63.9336H60.2095C59.9045 63.9336 59.6572 64.1915 59.6572 64.5097C59.6572 64.828 59.9045 65.0859 60.2095 65.0859H61.2156C61.5207 65.0859 61.768 64.828 61.768 64.5097C61.768 64.1915 61.5207 63.9336 61.2156 63.9336Z" fill="#E6E6E6"/>
<path d="M73.0624 63.9336H71.9648C71.6321 63.9336 71.3623 64.1915 71.3623 64.5097C71.3623 64.828 71.6321 65.0859 71.9648 65.0859H73.0624C73.3951 65.0859 73.6649 64.828 73.6649 64.5097C73.6649 64.1915 73.3951 63.9336 73.0624 63.9336Z" fill="#E6E6E6"/>
<path d="M76.3746 63.9336H75.3685C75.0634 63.9336 74.8162 64.1915 74.8162 64.5097C74.8162 64.828 75.0634 65.0859 75.3685 65.0859H76.3746C76.6796 65.0859 76.9269 64.828 76.9269 64.5097C76.9269 64.1915 76.6796 63.9336 76.3746 63.9336Z" fill="#E6E6E6"/>
<path d="M69.8412 63.7416H63.4812C63.1709 63.7416 62.9194 63.9995 62.9194 64.3177C62.9194 64.6359 63.1709 64.8939 63.4812 64.8939H69.8412C70.1514 64.8939 70.4029 64.6359 70.4029 64.3177C70.4029 63.9995 70.1514 63.7416 69.8412 63.7416Z" fill="#E6E6E6"/>
<path d="M85.5755 63.7416H79.2156C78.9053 63.7416 78.6538 63.9995 78.6538 64.3177C78.6538 64.6359 78.9053 64.8939 79.2156 64.8939H85.5755C85.8858 64.8939 86.1373 64.6359 86.1373 64.3177C86.1373 63.9995 85.8858 63.7416 85.5755 63.7416Z" fill="#E6E6E6"/>
<path d="M64.4778 66.4303H63.4717C63.1667 66.4303 62.9194 66.6883 62.9194 67.0065C62.9194 67.3247 63.1667 67.5826 63.4717 67.5826H64.4778C64.7829 67.5826 65.0302 67.3247 65.0302 67.0065C65.0302 66.6883 64.7829 66.4303 64.4778 66.4303Z" fill="#E6E6E6"/>
<path d="M76.1827 66.4303H75.1766C74.8715 66.4303 74.6243 66.6883 74.6243 67.0065C74.6243 67.3247 74.8715 67.5826 75.1766 67.5826H76.1827C76.4877 67.5826 76.735 67.3247 76.735 67.0065C76.735 66.6883 76.4877 66.4303 76.1827 66.4303Z" fill="#E6E6E6"/>
<path d="M79.4446 66.4303H78.4385C78.1335 66.4303 77.8862 66.6883 77.8862 67.0065C77.8862 67.3247 78.1335 67.5826 78.4385 67.5826H79.4446C79.7497 67.5826 79.997 67.3247 79.997 67.0065C79.997 66.6883 79.7497 66.4303 79.4446 66.4303Z" fill="#E6E6E6"/>
<path d="M72.9112 66.4303H66.5513C66.241 66.4303 65.9895 66.6883 65.9895 67.0065C65.9895 67.3247 66.241 67.5826 66.5513 67.5826H72.9112C73.2215 67.5826 73.473 67.3247 73.473 67.0065C73.473 66.6883 73.2215 66.4303 72.9112 66.4303Z" fill="#E6E6E6"/>
<path d="M88.6456 66.4303H82.2856C81.9754 66.4303 81.7239 66.6883 81.7239 67.0065C81.7239 67.3247 81.9754 67.5826 82.2856 67.5826H88.6456C88.9558 67.5826 89.2073 67.3247 89.2073 67.0065C89.2073 66.6883 88.9558 66.4303 88.6456 66.4303Z" fill="#E6E6E6"/>
<path d="M67.5479 68.927H66.5418C66.2368 68.927 65.9895 69.185 65.9895 69.5032C65.9895 69.8214 66.2368 70.0793 66.5418 70.0793H67.5479C67.8529 70.0793 68.1002 69.8214 68.1002 69.5032C68.1002 69.185 67.8529 68.927 67.5479 68.927Z" fill="#E6E6E6"/>
<path d="M79.2527 68.927H78.2466C77.9416 68.927 77.6943 69.185 77.6943 69.5032C77.6943 69.8214 77.9416 70.0793 78.2466 70.0793H79.2527C79.5578 70.0793 79.8051 69.8214 79.8051 69.5032C79.8051 69.185 79.5578 68.927 79.2527 68.927Z" fill="#E6E6E6"/>
<path d="M82.7069 68.927H81.7007C81.3957 68.927 81.1484 69.185 81.1484 69.5032C81.1484 69.8214 81.3957 70.0793 81.7007 70.0793H82.7069C83.0119 70.0793 83.2592 69.8214 83.2592 69.5032C83.2592 69.185 83.0119 68.927 82.7069 68.927Z" fill="#E6E6E6"/>
<path d="M76.1732 68.927H69.8132C69.503 68.927 69.2515 69.185 69.2515 69.5032C69.2515 69.8214 69.503 70.0793 69.8132 70.0793H76.1732C76.4834 70.0793 76.7349 69.8214 76.7349 69.5032C76.7349 69.185 76.4834 68.927 76.1732 68.927Z" fill="#E6E6E6"/>
<path d="M91.8934 68.927H85.3703C85.0521 68.927 84.7942 69.185 84.7942 69.5032C84.7942 69.8214 85.0521 70.0793 85.3703 70.0793H91.8934C92.2116 70.0793 92.4695 69.8214 92.4695 69.5032C92.4695 69.185 92.2116 68.927 91.8934 68.927Z" fill="#E6E6E6"/>
<path d="M70.618 71.6157H69.6119C69.3068 71.6157 69.0596 71.8737 69.0596 72.1919C69.0596 72.5101 69.3068 72.768 69.6119 72.768H70.618C70.923 72.768 71.1703 72.5101 71.1703 72.1919C71.1703 71.8737 70.923 71.6157 70.618 71.6157Z" fill="#E6E6E6"/>
<path d="M82.515 71.6157H81.5089C81.2038 71.6157 80.9565 71.8737 80.9565 72.1919C80.9565 72.5101 81.2038 72.768 81.5089 72.768H82.515C82.82 72.768 83.0673 72.5101 83.0673 72.1919C83.0673 71.8737 82.82 71.6157 82.515 71.6157Z" fill="#E6E6E6"/>
<path d="M85.7769 71.6157H84.7708C84.4658 71.6157 84.2185 71.8737 84.2185 72.1919C84.2185 72.5101 84.4658 72.768 84.7708 72.768H85.7769C86.082 72.768 86.3292 72.5101 86.3292 72.1919C86.3292 71.8737 86.082 71.6157 85.7769 71.6157Z" fill="#E6E6E6"/>
<path d="M79.2435 71.4237H72.8835C72.5733 71.4237 72.3218 71.6817 72.3218 71.9999C72.3218 72.3181 72.5733 72.576 72.8835 72.576H79.2435C79.5537 72.576 79.8052 72.3181 79.8052 71.9999C79.8052 71.6817 79.5537 71.4237 79.2435 71.4237Z" fill="#E6E6E6"/>
<path d="M73.0624 81.7946H71.9648C71.6321 81.7946 71.3623 82.0525 71.3623 82.3707C71.3623 82.6889 71.6321 82.9469 71.9648 82.9469H73.0624C73.3951 82.9469 73.6649 82.6889 73.6649 82.3707C73.6649 82.0525 73.3951 81.7946 73.0624 81.7946Z" fill="#E6E6E6"/>
<path d="M76.3746 81.7946H75.3685C75.0634 81.7946 74.8162 82.0525 74.8162 82.3707C74.8162 82.6889 75.0634 82.9469 75.3685 82.9469H76.3746C76.6796 82.9469 76.9269 82.6889 76.9269 82.3707C76.9269 82.0525 76.6796 81.7946 76.3746 81.7946Z" fill="#E6E6E6"/>
<path d="M85.5755 81.7946H79.2156C78.9053 81.7946 78.6538 82.0525 78.6538 82.3707C78.6538 82.6889 78.9053 82.9469 79.2156 82.9469H85.5755C85.8858 82.9469 86.1373 82.6889 86.1373 82.3707C86.1373 82.0525 85.8858 81.7946 85.5755 81.7946Z" fill="#E6E6E6"/>
<path d="M61.2156 81.7946H60.2095C59.9045 81.7946 59.6572 82.0525 59.6572 82.3707C59.6572 82.6889 59.9045 82.9469 60.2095 82.9469H61.2156C61.5207 82.9469 61.768 82.6889 61.768 82.3707C61.768 82.0525 61.5207 81.7946 61.2156 81.7946Z" fill="#E6E6E6"/>
<path d="M69.8412 81.7946H63.4812C63.1709 81.7946 62.9194 82.0525 62.9194 82.3707C62.9194 82.6889 63.1709 82.9469 63.4812 82.9469H69.8412C70.1514 82.9469 70.4029 82.6889 70.4029 82.3707C70.4029 82.0525 70.1514 81.7946 69.8412 81.7946Z" fill="#E6E6E6"/>
<path d="M64.4778 79.1057H63.4717C63.1667 79.1057 62.9194 79.3637 62.9194 79.6819C62.9194 80.0001 63.1667 80.258 63.4717 80.258H64.4778C64.7829 80.258 65.0302 80.0001 65.0302 79.6819C65.0302 79.3637 64.7829 79.1057 64.4778 79.1057Z" fill="#E6E6E6"/>
<path d="M76.1827 79.1057H75.1766C74.8715 79.1057 74.6243 79.3637 74.6243 79.6819C74.6243 80.0001 74.8715 80.258 75.1766 80.258H76.1827C76.4877 80.258 76.735 80.0001 76.735 79.6819C76.735 79.3637 76.4877 79.1057 76.1827 79.1057Z" fill="#E6E6E6"/>
<path d="M79.4446 79.1057H78.4385C78.1335 79.1057 77.8862 79.3637 77.8862 79.6819C77.8862 80.0001 78.1335 80.258 78.4385 80.258H79.4446C79.7497 80.258 79.997 80.0001 79.997 79.6819C79.997 79.3637 79.7497 79.1057 79.4446 79.1057Z" fill="#E6E6E6"/>
<path d="M72.9112 79.2979H66.5513C66.241 79.2979 65.9895 79.5558 65.9895 79.874C65.9895 80.1922 66.241 80.4502 66.5513 80.4502H72.9112C73.2215 80.4502 73.473 80.1922 73.473 79.874C73.473 79.5558 73.2215 79.2979 72.9112 79.2979Z" fill="#E6E6E6"/>
<path d="M67.5479 76.6091H66.5418C66.2368 76.6091 65.9895 76.8671 65.9895 77.1853C65.9895 77.5035 66.2368 77.7614 66.5418 77.7614H67.5479C67.8529 77.7614 68.1002 77.5035 68.1002 77.1853C68.1002 76.8671 67.8529 76.6091 67.5479 76.6091Z" fill="#E6E6E6"/>
<path d="M79.2527 76.6091H78.2466C77.9416 76.6091 77.6943 76.8671 77.6943 77.1853C77.6943 77.5035 77.9416 77.7614 78.2466 77.7614H79.2527C79.5578 77.7614 79.8051 77.5035 79.8051 77.1853C79.8051 76.8671 79.5578 76.6091 79.2527 76.6091Z" fill="#E6E6E6"/>
<path d="M82.7069 76.6091H81.7007C81.3957 76.6091 81.1484 76.8671 81.1484 77.1853C81.1484 77.5035 81.3957 77.7614 81.7007 77.7614H82.7069C83.0119 77.7614 83.2592 77.5035 83.2592 77.1853C83.2592 76.8671 83.0119 76.6091 82.7069 76.6091Z" fill="#E6E6E6"/>
<path d="M76.1732 76.8011H69.8132C69.503 76.8011 69.2515 77.0161 69.2515 77.2813C69.2515 77.5464 69.503 77.7614 69.8132 77.7614H76.1732C76.4834 77.7614 76.7349 77.5464 76.7349 77.2813C76.7349 77.0161 76.4834 76.8011 76.1732 76.8011Z" fill="#E6E6E6"/>
<path d="M70.618 74.1124H69.6119C69.3068 74.1124 69.0596 74.3704 69.0596 74.6886C69.0596 75.0068 69.3068 75.2647 69.6119 75.2647H70.618C70.923 75.2647 71.1703 75.0068 71.1703 74.6886C71.1703 74.3704 70.923 74.1124 70.618 74.1124Z" fill="#E6E6E6"/>
<path d="M82.515 74.1124H81.5089C81.2038 74.1124 80.9565 74.3704 80.9565 74.6886C80.9565 75.0068 81.2038 75.2647 81.5089 75.2647H82.515C82.82 75.2647 83.0673 75.0068 83.0673 74.6886C83.0673 74.3704 82.82 74.1124 82.515 74.1124Z" fill="#E6E6E6"/>
<path d="M85.7769 74.1124H84.7708C84.4658 74.1124 84.2185 74.3704 84.2185 74.6886C84.2185 75.0068 84.4658 75.2647 84.7708 75.2647H85.7769C86.082 75.2647 86.3292 75.0068 86.3292 74.6886C86.3292 74.3704 86.082 74.1124 85.7769 74.1124Z" fill="#E6E6E6"/>
<path d="M79.2435 74.1124H72.8835C72.5733 74.1124 72.3218 74.3704 72.3218 74.6886C72.3218 75.0068 72.5733 75.2647 72.8835 75.2647H79.2435C79.5537 75.2647 79.8052 75.0068 79.8052 74.6886C79.8052 74.3704 79.5537 74.1124 79.2435 74.1124Z" fill="#E6E6E6"/>
<path d="M107.628 118.688C107.509 118.749 107.388 118.81 107.268 118.869C104.175 120.421 101.7 121.303 98.3152 122.269C98.0294 119.067 97.7533 113.439 97.4851 109.95C97.4146 109.044 97.3442 108.284 97.2756 107.748C97.2584 107.463 97.2003 107.181 97.1034 106.913L97.1151 107.748L97.1445 109.95L97.3148 122.544C93.1041 123.662 88.7787 124.288 84.4248 124.409C84.1977 124.414 83.9746 124.418 83.7592 124.422C83.6828 124.424 83.6084 124.426 83.5341 124.426C83.2893 124.428 83.0466 124.43 82.8019 124.43C78.2136 124.434 73.642 123.877 69.1875 122.774C69.2835 119.605 69.3794 114.04 69.4714 109.95C69.491 109.15 69.5086 108.406 69.5282 107.748C69.5654 106.341 69.6045 105.327 69.6417 104.988C69.6088 105.048 69.5831 105.112 69.5654 105.178C69.3841 106.025 69.2604 106.884 69.1954 107.748C69.1268 108.406 69.0583 109.15 68.9898 109.95C68.6256 114.199 68.2458 119.977 67.8543 122.426C65.5237 121.788 63.2368 120.998 61.008 120.063C59.8333 119.572 58.6795 119.042 57.5466 118.474C57.762 117.059 57.9871 115.474 58.2181 113.83C58.3983 112.555 58.5842 111.244 58.7741 109.95C59.0678 107.95 59.3693 105.989 59.6747 104.263C60.1211 101.74 60.5792 99.7129 61.0334 98.7818C61.4641 97.8978 61.8948 97.0255 62.3118 96.1906C62.4567 95.8979 62.6016 95.6091 62.7426 95.3282C62.7758 95.2614 62.8091 95.1966 62.8424 95.1318C63.1419 94.5404 63.4317 93.9747 63.7077 93.4443C63.9446 92.9905 64.1698 92.5622 64.3832 92.1674C64.9 91.2087 65.3386 90.4445 65.6635 89.9612C67.0223 87.8932 69.045 86.3536 71.3959 85.5981L71.4546 85.5824L71.4957 85.6001L75.4994 84.3664L76.0847 84.1856L76.4783 84.0638L77.8644 83.005L78.6181 82.4294L79.3249 81.8892L80.707 80.8342L89.2644 81.3627L90.9305 85.3879L94.662 86.7571L94.7266 86.7277L94.7834 86.7041L94.8421 86.7198C97.1927 87.476 99.2152 89.0154 100.574 91.083C100.759 91.3599 100.982 91.7253 101.234 92.1674C101.45 92.5426 101.685 92.9708 101.939 93.4443C102.301 94.1181 102.697 94.8784 103.116 95.7015C103.208 95.8822 103.302 96.0669 103.396 96.2535C103.57 96.5992 103.747 96.9522 103.926 97.3123C104.343 98.1472 104.774 99.0195 105.205 99.9055C105.579 100.674 105.956 102.253 106.328 104.263C106.636 105.933 106.941 107.901 107.237 109.95C107.624 112.606 107.211 115.786 107.562 118.23C107.583 118.385 107.607 118.537 107.628 118.688Z" fill="#A3A3A3"/>
<path d="M82.8752 77.5694C88.3859 77.5694 92.8531 73.0982 92.8531 67.5827C92.8531 62.0672 88.3859 57.5959 82.8752 57.5959C77.3645 57.5959 72.8972 62.0672 72.8972 67.5827C72.8972 73.0982 77.3645 77.5694 82.8752 77.5694Z" fill="#D69274"/>
<path d="M99.333 54.3215C99.1357 53.8615 98.8732 53.4323 98.5535 53.047C97.0376 51.198 94.2808 50.3843 91.4513 52.5725C90.9067 52.451 90.3389 52.4836 89.8118 52.6666C89.5629 52.7566 89.3297 52.8849 89.1206 53.047C88.6922 53.3807 88.3579 53.8199 88.1506 54.3215C88.0398 54.5864 87.9671 54.8657 87.9347 55.1509C87.2352 54.788 86.495 54.5096 85.7296 54.3215C83.8516 53.855 81.8878 53.855 80.0098 54.3215C79.408 54.4735 78.8285 54.7029 78.2858 55.0039C77.3669 55.5333 76.8387 56.2019 76.7445 56.945C75.4191 57.0195 74.0407 57.7156 73.0137 58.8568C72.8979 58.9843 72.786 59.1176 72.6819 59.2548C71.8183 60.3833 71.3542 61.766 71.3624 63.1862V63.4352H71.6118C72.295 63.4346 72.9719 63.5664 73.6048 63.8235C74.0149 63.988 74.4033 64.202 74.7613 64.4607C74.9955 64.6267 75.2167 64.8102 75.423 65.0097C75.9013 65.4721 76.3065 66.0043 76.6247 66.5882C77.4405 68.0636 77.7233 69.7743 77.4258 71.4333C77.3576 71.8173 77.2577 72.195 77.1273 72.5627C76.9419 73.0872 76.6975 73.5891 76.3989 74.0588C76.3871 74.0764 76.3773 74.0941 76.3655 74.1117C76.2339 74.3215 76.1083 74.5352 75.9905 74.7509C75.9021 74.9117 75.8196 75.0764 75.7431 75.2411C75.5192 75.6995 75.3302 76.1741 75.1776 76.6607C74.9043 77.5215 74.7433 78.4138 74.6985 79.3156C74.6847 79.5548 74.6808 79.7941 74.6886 80.0333C74.7003 80.6499 74.768 81.2642 74.8909 81.8686C74.9086 81.9509 74.9262 82.0313 74.9439 82.1137L75.0872 82.7392L75.4269 84.2313L75.6626 85.2588L75.8805 86.2117L76.2025 85.7509C76.3125 85.5941 76.5893 85.1117 76.9605 84.4294C77.2059 83.9843 77.4906 83.4529 77.7989 82.8725C78.2289 82.0588 78.7001 81.1509 79.1616 80.2451C79.3481 79.8784 79.5327 79.5137 79.7114 79.1568C80.0491 78.4804 80.3672 77.8274 80.6401 77.247C80.8915 76.7117 81.1055 76.2372 81.2645 75.8568C81.3136 76.1058 81.3548 76.3588 81.3863 76.6137C81.4216 76.8725 81.4471 77.1353 81.4609 77.398C81.4648 77.4372 81.4668 77.4784 81.4687 77.5176L81.4766 77.6784L81.4786 77.7255L81.6867 77.7529C82.8871 77.8813 84.0973 77.8905 85.2996 77.7804H85.3016C86.8943 77.6606 88.4568 77.2825 89.9276 76.6608C90.763 76.2988 91.5431 75.8209 92.2446 75.2411C92.5724 74.9702 92.8784 74.6738 93.1596 74.3549C93.2303 74.2745 93.299 74.1941 93.3658 74.1117C93.7544 73.6348 94.0871 73.1151 94.3574 72.5627C94.5384 72.1982 94.692 71.8206 94.8168 71.4333C95.5708 69.1529 95.5276 66.3078 94.6872 62.9274C94.9143 62.8837 95.1317 62.8001 95.3293 62.6804C95.9459 62.3098 96.3739 61.5745 96.5075 60.6764L96.7195 60.7333C97.4713 60.3836 98.141 59.8799 98.685 59.2549C98.7928 59.1276 98.8937 58.9947 98.9874 58.8568C99.9476 57.445 99.9554 55.7509 99.333 54.3215Z" fill="#2F2E41"/>
<path opacity="0.2" d="M66.5652 104.265L68.1956 97.7349L69.6353 103.369L66.5652 104.265Z" fill="black"/>
<path d="M110.89 99.9746C110.295 108.23 110.912 111.864 107.623 118.671C104.63 120.143 101.513 121.345 98.308 122.262C97.9748 122.357 97.6409 122.448 97.3064 122.538C93.0905 123.66 88.7598 124.287 84.4005 124.408C84.1731 124.414 83.9497 124.418 83.7341 124.422C83.6576 124.424 83.5831 124.426 83.5086 124.426C83.2636 124.428 83.0206 124.43 82.7755 124.43C78.1817 124.434 73.6044 123.876 69.1444 122.768C68.6975 122.658 68.2525 122.542 67.8095 122.42C65.476 121.779 63.1863 120.987 60.9548 120.048C59.7787 119.556 58.6235 119.024 57.4892 118.454C57.2324 118.324 56.9756 118.194 56.7227 118.059C55.4231 115.761 54.6841 112.966 54.6685 109.607C55.5682 103.82 108.903 94.9838 110.89 99.9746Z" fill="#CCCCCC"/>
<path opacity="0.2" d="M110.978 101.377C111.008 100.865 111.043 100.336 111.082 99.7852C109.088 94.7854 55.5713 103.638 54.6685 109.435C54.6709 109.967 54.6936 110.483 54.7317 110.986C56.9179 105.264 107.759 96.8505 110.978 101.377Z" fill="#3F3D56"/>
<path d="M58.1049 77.9629C58.118 77.7831 58.0925 77.6027 58.0302 77.4336C57.9678 77.2646 57.87 77.1109 57.7434 76.9828C57.6167 76.8548 57.4642 76.7554 57.2959 76.6914C57.1277 76.6274 56.9478 76.6002 56.7682 76.6117C56.7013 76.6142 56.6347 76.6226 56.5693 76.6366L48.6984 78.4174C48.5225 78.4601 48.3575 78.5392 48.2141 78.6497C48.0706 78.7602 47.9518 78.8995 47.8653 79.0587C47.7499 79.0631 47.6353 79.0798 47.5234 79.1085C47.2784 79.1641 47.0468 79.2675 46.8418 79.4127C46.6368 79.558 46.4623 79.7422 46.3284 79.955C46.1944 80.1678 46.1036 80.4049 46.0612 80.6528C46.0188 80.9007 46.0255 81.1545 46.081 81.3998C46.1365 81.6451 46.2397 81.8771 46.3848 82.0824C46.5298 82.2878 46.7138 82.4625 46.9262 82.5967C47.3553 82.8676 47.8742 82.9567 48.3689 82.8444C48.6505 82.779 48.9139 82.6513 49.1398 82.4708L51.807 89.9924C51.9402 90.2281 52.146 90.4143 52.3937 90.5232C52.6413 90.632 52.9175 90.6577 53.1809 90.5963L58.2976 89.4382C58.559 89.3769 58.7943 89.2342 58.9697 89.0306C59.145 88.827 59.2515 88.573 59.2737 88.305L58.1049 77.9629ZM48.2508 82.3089C47.8975 82.3887 47.527 82.325 47.2206 82.1317C46.9142 81.9383 46.6968 81.6312 46.6162 81.2776C46.5355 80.924 46.5982 80.5528 46.7904 80.2454C46.9826 79.938 47.2887 79.7195 47.6415 79.6378C47.6664 79.6315 47.6913 79.6378 47.7161 79.6315C47.7142 79.8584 47.7721 80.0818 47.884 80.2791L48.86 81.9851C48.6901 82.1465 48.4795 82.2585 48.2508 82.3089Z" fill="#2F2E41"/>
<path d="M56.7767 76.6091C56.8516 77.6366 55.1423 78.8182 52.8528 79.287C50.7504 79.7301 48.8665 79.4218 48.3362 78.6127C48.4428 78.5476 48.5585 78.5 48.6793 78.4714L56.5771 76.6348C56.6428 76.6204 56.7096 76.6117 56.7767 76.6091V76.6091Z" fill="#3F3D56"/>
<path d="M51.4289 101.768L55.8196 99.5663L52.1607 89.6588L51.1964 84.6624C51.0711 84.0132 50.7782 83.4085 50.3468 82.9085C49.9154 82.4084 49.3608 82.0307 48.7383 81.813C48.1157 81.5954 47.4471 81.5453 46.7993 81.668C46.1514 81.7906 45.547 82.0816 45.0465 82.5119V82.5119C44.3047 83.1495 43.8389 84.0512 43.7475 85.0267C43.6561 86.0022 43.9461 86.9752 44.5564 87.7403L48.1359 92.2274L51.4289 101.768Z" fill="#D69274"/>
<path d="M55.701 97.7197L49.8713 100.654L54.2954 114.611C54.6131 115.613 55.1826 116.516 55.9487 117.231C56.7148 117.947 57.6516 118.451 58.668 118.695V118.695C59.9214 118.995 61.2373 118.886 62.4248 118.383C63.6124 117.879 64.6099 117.009 65.2728 115.896L77.0042 95.6508C77.8356 94.2557 78.0922 92.5887 77.7192 91.0057C77.3463 89.4227 76.3733 88.0493 75.0082 87.1788V87.1788C74.274 86.7107 73.4501 86.4034 72.5902 86.277C71.7302 86.1506 70.8535 86.208 70.017 86.4453C69.1805 86.6827 68.403 87.0947 67.7352 87.6546C67.0673 88.2144 66.524 88.9096 66.1406 89.6949L58.9802 105.057L55.701 97.7197Z" fill="#A3A3A3"/>
<path d="M53.9904 85.0594C53.9791 85.0594 53.9678 85.0577 53.9571 85.0544L52.6267 84.6501C52.6106 84.6452 52.5962 84.6369 52.5847 84.6258C52.5731 84.6148 52.5649 84.6014 52.5608 84.5869C52.5566 84.5723 52.5566 84.5571 52.5607 84.5426C52.5649 84.528 52.5731 84.5146 52.5846 84.5036L53.5741 83.5525C53.5832 83.5437 53.5941 83.5366 53.6063 83.5315C53.6185 83.5265 53.6317 83.5236 53.6452 83.523C53.6586 83.5225 53.6721 83.5243 53.6847 83.5284C53.6974 83.5325 53.709 83.5387 53.7189 83.5467C53.7288 83.5548 53.7369 83.5644 53.7425 83.5752C53.7482 83.586 53.7514 83.5977 53.7519 83.6096C53.7525 83.6214 53.7504 83.6333 53.7457 83.6445C53.7411 83.6556 53.7339 83.6658 53.7248 83.6746L52.841 84.5241L54.0237 84.8836C54.0465 84.8906 54.0659 84.9045 54.0783 84.9229C54.0907 84.9412 54.0953 84.9629 54.0913 84.9839C54.0873 85.005 54.075 85.0242 54.0565 85.038C54.038 85.0518 54.0146 85.0594 53.9904 85.0594V85.0594Z" fill="#8571D6"/>
<path d="M55.6809 84.8674C55.6608 84.8674 55.6412 84.8614 55.6246 84.85C55.6079 84.8387 55.595 84.8226 55.5874 84.8039C55.5799 84.7851 55.5781 84.7645 55.5823 84.7447C55.5864 84.7249 55.5964 84.7068 55.6108 84.6927L56.4972 83.829L55.3065 83.3345C55.2942 83.3294 55.283 83.3219 55.2736 83.3125C55.2642 83.3031 55.2568 83.2919 55.2517 83.2796C55.2466 83.2673 55.2439 83.2541 55.2439 83.2407C55.2439 83.2273 55.2464 83.2141 55.2515 83.2018C55.2566 83.1894 55.264 83.1782 55.2733 83.1687C55.2827 83.1593 55.2938 83.1518 55.3061 83.1467C55.3183 83.1416 55.3314 83.1389 55.3447 83.1389C55.3579 83.1389 55.371 83.1415 55.3833 83.1467L56.7165 83.7003C56.732 83.7067 56.7456 83.7169 56.7562 83.73C56.7668 83.7431 56.774 83.7586 56.7772 83.7752C56.7803 83.7917 56.7793 83.8088 56.7743 83.8249C56.7692 83.841 56.7603 83.8555 56.7482 83.8673L55.7511 84.8388C55.7323 84.8571 55.7071 84.8674 55.6809 84.8674V84.8674Z" fill="#8571D6"/>
<path d="M54.1953 85.8276C54.1851 85.8277 54.175 85.8261 54.1652 85.8231C54.1523 85.8191 54.1404 85.8127 54.13 85.8042C54.1196 85.7956 54.111 85.7851 54.1047 85.7733C54.0984 85.7614 54.0945 85.7485 54.0932 85.7351C54.092 85.7218 54.0934 85.7083 54.0973 85.6955L55.0436 82.6344C55.0517 82.6086 55.0697 82.5871 55.0937 82.5745C55.1177 82.5619 55.1458 82.5593 55.1717 82.5673C55.1977 82.5752 55.2194 82.5931 55.2321 82.617C55.2448 82.6408 55.2475 82.6687 55.2396 82.6946L54.2934 85.7557C54.2869 85.7765 54.2739 85.7948 54.2562 85.8077C54.2386 85.8207 54.2173 85.8276 54.1953 85.8276V85.8276Z" fill="#8571D6"/>
<defs>
<linearGradient id="paint0_linear_967_360" x1="4.57941" y1="94.7381" x2="159.796" y2="94.2351" gradientUnits="userSpaceOnUse">
<stop stop-color="#595EF2"/>
<stop offset="1" stop-color="#E21A7B"/>
</linearGradient>
</defs>
</svg>
