<svg width="456" height="374" viewBox="0 0 456 374" fill="none" xmlns="http://www.w3.org/2000/svg">
<path d="M66.9178 318.952C95.698 304.016 155.193 278.96 230.29 278.96C305.387 278.96 364.882 304.016 393.662 318.952C421.68 333.492 444.213 350.636 454.828 364.624C458.697 359.352 453.018 265.559 437.303 228.362C414.264 173.699 375.626 127.056 326.227 94.2772C276.829 61.498 218.867 44.0398 159.602 44.0893C138.522 44.0317 117.64 48.1602 98.1645 56.2361C78.689 64.3119 61.007 76.1746 46.1419 91.1375C45.5105 91.7696 44.885 92.406 44.2655 93.0467C11.0057 127.442 -4.52424 175.295 1.1458 222.828C5.18263 256.67 15.1315 327.454 29.1888 342.463C41.0923 333.592 53.7121 325.728 66.9178 318.952Z" fill="#525252"/>
<path d="M233.634 302.172C260.041 302.172 281.449 297.702 281.449 292.187C281.449 286.672 260.041 282.201 233.634 282.201C207.227 282.201 185.819 286.672 185.819 292.187C185.819 297.702 207.227 302.172 233.634 302.172Z" fill="#F2F2F2"/>
<path d="M282.208 66.5719C238.377 66.568 204.043 58.6132 204.044 48.462C204.044 42.376 216.211 36.9469 237.423 33.5674C237.499 33.5548 237.576 33.5574 237.651 33.575C237.726 33.5926 237.797 33.6249 237.859 33.6699C237.922 33.7149 237.974 33.7718 238.015 33.8373C238.055 33.9029 238.082 33.9757 238.094 34.0518C238.106 34.1278 238.103 34.2054 238.085 34.2803C238.067 34.3551 238.034 34.4256 237.989 34.4878C237.944 34.5499 237.887 34.6025 237.821 34.6425C237.755 34.6825 237.682 34.7091 237.606 34.7207C217.624 37.9045 205.211 43.1699 205.21 48.4621C205.21 57.6418 240.47 65.4002 282.208 65.404C323.946 65.4078 359.208 57.6557 359.209 48.476C359.209 43.1616 346.717 37.8811 326.608 34.6957C326.532 34.6839 326.459 34.6573 326.394 34.6173C326.328 34.5773 326.271 34.5247 326.226 34.4626C326.181 34.4005 326.148 34.3301 326.13 34.2554C326.112 34.1807 326.109 34.1032 326.121 34.0273C326.133 33.9514 326.16 33.8787 326.2 33.8132C326.24 33.7477 326.293 33.6908 326.355 33.6457C326.417 33.6006 326.488 33.5682 326.563 33.5505C326.637 33.5327 326.715 33.5298 326.79 33.5421C348.135 36.9232 360.376 42.3664 360.375 48.4761C360.374 58.6273 326.039 66.5759 282.208 66.5719Z" fill="#E0E0E0"/>
<path d="M243.429 69.9778C247.394 76.7766 253.073 82.4137 259.898 86.3252C266.723 90.2367 274.454 92.2853 282.318 92.2662C290.182 92.2471 297.903 90.1608 304.709 86.2162C311.515 82.2716 317.167 76.6069 321.099 69.7889C295.232 71.2766 269.303 71.3397 243.429 69.9778Z" fill="#6459E9"/>
<path d="M325.399 57.3042C327.311 50.5938 327.637 43.5299 326.351 36.6716C325.065 29.8134 322.201 23.3489 317.988 17.79C313.774 12.2311 308.326 7.73021 302.075 4.64362C295.823 1.55704 288.94 -0.030527 281.969 0.0065554C274.999 0.0436378 268.133 1.70436 261.914 4.85728C255.696 8.0102 250.296 12.5688 246.142 18.1722C241.987 23.7757 239.193 30.2702 237.979 37.1418C236.766 44.0133 237.167 51.0734 239.15 57.7631C267.799 61.3448 296.79 61.1905 325.399 57.3042Z" fill="#6459E9"/>
<path d="M292.713 25.1105C295.612 25.1105 297.963 22.7574 297.963 19.8548C297.963 16.9522 295.612 14.5991 292.713 14.5991C289.813 14.5991 287.463 16.9522 287.463 19.8548C287.463 22.7574 289.813 25.1105 292.713 25.1105Z" fill="#3D3D3D"/>
<path d="M265.294 50.2194C270.126 50.2194 274.043 46.2977 274.043 41.4599C274.043 36.6222 270.126 32.7005 265.294 32.7005C260.461 32.7005 256.544 36.6222 256.544 41.4599C256.544 46.2977 260.461 50.2194 265.294 50.2194Z" fill="#3D3D3D"/>
<path d="M282.213 88.1786C285.113 88.1786 287.463 85.8255 287.463 82.9229C287.463 80.0203 285.113 77.6672 282.213 77.6672C279.314 77.6672 276.963 80.0203 276.963 82.9229C276.963 85.8255 279.314 88.1786 282.213 88.1786Z" fill="#3D3D3D"/>
<path d="M234.987 297.484C252.901 297.484 267.423 295.074 267.423 292.101C267.423 289.128 252.901 286.718 234.987 286.718C217.074 286.718 202.552 289.128 202.552 292.101C202.552 295.074 217.074 297.484 234.987 297.484Z" fill="#E6E6E6"/>
<path d="M33.7085 190.372C35.9637 190.372 37.7918 188.542 37.7918 186.285C37.7918 184.027 35.9637 182.197 33.7085 182.197C31.4534 182.197 29.6252 184.027 29.6252 186.285C29.6252 188.542 31.4534 190.372 33.7085 190.372Z" fill="#3D3D3D"/>
<path d="M319.539 249.937C321.794 249.937 323.622 248.107 323.622 245.849C323.622 243.591 321.794 241.761 319.539 241.761C317.284 241.761 315.456 243.591 315.456 245.849C315.456 248.107 317.284 249.937 319.539 249.937Z" fill="#3D3D3D"/>
<path d="M66.6667 258.112H64.6251V256.068C64.6251 255.371 64.3485 254.703 63.8562 254.21C63.3639 253.717 62.6963 253.44 62.0001 253.44C61.3039 253.44 60.6362 253.717 60.144 254.21C59.6517 254.703 59.3751 255.371 59.3751 256.068V258.112H57.3335C56.6373 258.112 55.9696 258.389 55.4773 258.882C54.9851 259.375 54.7085 260.043 54.7085 260.74C54.7085 261.437 54.9851 262.105 55.4773 262.598C55.9696 263.091 56.6373 263.368 57.3335 263.368H59.3751V265.412C59.3751 266.109 59.6517 266.777 60.144 267.27C60.6362 267.763 61.3039 268.04 62.0001 268.04C62.6963 268.04 63.3639 267.763 63.8562 267.27C64.3485 266.777 64.6251 266.109 64.6251 265.412V263.368H66.6667C67.3629 263.368 68.0306 263.091 68.5228 262.598C69.0151 262.105 69.2917 261.437 69.2917 260.74C69.2917 260.043 69.0151 259.375 68.5228 258.882C68.0306 258.389 67.3629 258.112 66.6667 258.112Z" fill="#3D3D3D"/>
<path d="M339.958 148.672H337.917V146.628C337.917 145.931 337.64 145.262 337.148 144.77C336.655 144.277 335.988 144 335.292 144C334.595 144 333.928 144.277 333.435 144.77C332.943 145.262 332.667 145.931 332.667 146.628V148.672H330.625C329.929 148.672 329.261 148.949 328.769 149.441C328.277 149.934 328 150.603 328 151.3C328 151.996 328.277 152.665 328.769 153.158C329.261 153.651 329.929 153.927 330.625 153.927H332.667V155.971C332.667 156.668 332.943 157.337 333.435 157.829C333.928 158.322 334.595 158.599 335.292 158.599C335.988 158.599 336.655 158.322 337.148 157.829C337.64 157.337 337.917 156.668 337.917 155.971V153.927H339.958C340.654 153.927 341.322 153.651 341.814 153.158C342.307 152.665 342.583 151.996 342.583 151.3C342.583 150.603 342.307 149.934 341.814 149.441C341.322 148.949 340.654 148.672 339.958 148.672Z" fill="#3D3D3D"/>
<path d="M367.173 207.985H366.112V206.922C366.112 206.559 365.968 206.212 365.712 205.956C365.456 205.699 365.109 205.555 364.747 205.555C364.385 205.555 364.038 205.699 363.782 205.956C363.526 206.212 363.382 206.559 363.382 206.922V207.985H362.32C361.958 207.985 361.611 208.129 361.355 208.385C361.099 208.641 360.955 208.989 360.955 209.351C360.955 209.714 361.099 210.061 361.355 210.317C361.611 210.574 361.958 210.718 362.32 210.718H363.382V211.78C363.382 212.143 363.526 212.49 363.782 212.747C364.038 213.003 364.385 213.147 364.747 213.147C365.109 213.147 365.456 213.003 365.712 212.747C365.968 212.49 366.112 212.143 366.112 211.78V210.718H367.173C367.535 210.718 367.883 210.574 368.139 210.317C368.395 210.061 368.538 209.714 368.538 209.351C368.538 208.989 368.395 208.641 368.139 208.385C367.883 208.129 367.535 207.985 367.173 207.985Z" fill="#FF6584"/>
<path d="M57.4268 137.325H56.3651V136.262C56.3651 136.083 56.3298 135.905 56.2612 135.739C56.1926 135.573 56.0921 135.423 55.9653 135.296C55.8386 135.169 55.6881 135.068 55.5225 135C55.3569 134.931 55.1794 134.896 55.0001 134.896C54.8209 134.896 54.6434 134.931 54.4778 135C54.3122 135.068 54.1617 135.169 54.0349 135.296C53.9082 135.423 53.8076 135.573 53.7391 135.739C53.6705 135.905 53.6351 136.083 53.6351 136.262V137.325H52.5735C52.2115 137.325 51.8643 137.469 51.6083 137.725C51.3523 137.982 51.2085 138.329 51.2085 138.691C51.2085 139.054 51.3523 139.401 51.6083 139.658C51.8643 139.914 52.2115 140.058 52.5735 140.058H53.6351V141.121C53.6351 141.3 53.6705 141.478 53.7391 141.644C53.8076 141.81 53.9082 141.96 54.0349 142.087C54.1617 142.214 54.3122 142.315 54.4778 142.383C54.6434 142.452 54.8209 142.487 55.0001 142.487C55.1794 142.487 55.3569 142.452 55.5225 142.383C55.6881 142.315 55.8386 142.214 55.9653 142.087C56.0921 141.96 56.1926 141.81 56.2612 141.644C56.3298 141.478 56.3651 141.3 56.3651 141.121V140.058H57.4268C57.7888 140.058 58.136 139.914 58.392 139.658C58.6479 139.401 58.7918 139.054 58.7918 138.691C58.7918 138.329 58.6479 137.982 58.392 137.725C58.136 137.469 57.7888 137.325 57.4268 137.325Z" fill="#E0E0E0"/>
<path d="M136.176 137.325H135.114V136.262C135.114 135.9 134.97 135.552 134.714 135.296C134.458 135.04 134.111 134.896 133.749 134.896C133.387 134.896 133.04 135.04 132.784 135.296C132.528 135.552 132.384 135.9 132.384 136.262V137.325H131.323C130.96 137.325 130.613 137.469 130.357 137.725C130.101 137.982 129.958 138.329 129.958 138.691C129.958 139.054 130.101 139.401 130.357 139.658C130.613 139.914 130.96 140.058 131.323 140.058H132.384V141.121C132.384 141.483 132.528 141.831 132.784 142.087C133.04 142.343 133.387 142.487 133.749 142.487C134.111 142.487 134.458 142.343 134.714 142.087C134.97 141.831 135.114 141.483 135.114 141.121V140.058H136.176C136.538 140.058 136.885 139.914 137.141 139.658C137.397 139.401 137.541 139.054 137.541 138.691C137.541 138.329 137.397 137.982 137.141 137.725C136.885 137.469 136.538 137.325 136.176 137.325Z" fill="#3D3D3D"/>
<path d="M407.423 277.476H406.361V276.414C406.361 276.051 406.217 275.704 405.961 275.447C405.705 275.191 405.358 275.047 404.996 275.047C404.634 275.047 404.287 275.191 404.031 275.447C403.775 275.704 403.631 276.051 403.631 276.414V277.476H402.57C402.208 277.476 401.86 277.62 401.604 277.877C401.348 278.133 401.205 278.48 401.205 278.843C401.205 279.205 401.348 279.553 401.604 279.809C401.86 280.065 402.208 280.209 402.57 280.209H403.631V281.272C403.631 281.635 403.775 281.982 404.031 282.238C404.287 282.495 404.634 282.639 404.996 282.639C405.358 282.639 405.705 282.495 405.961 282.238C406.217 281.982 406.361 281.635 406.361 281.272V280.209H407.423C407.785 280.209 408.132 280.065 408.388 279.809C408.644 279.553 408.788 279.205 408.788 278.843C408.788 278.48 408.644 278.133 408.388 277.877C408.132 277.62 407.785 277.476 407.423 277.476Z" fill="#3D3D3D"/>
<path d="M284.924 163.603H283.863V162.541C283.863 162.178 283.719 161.831 283.463 161.574C283.207 161.318 282.86 161.174 282.498 161.174C282.136 161.174 281.788 161.318 281.533 161.574C281.277 161.831 281.133 162.178 281.133 162.541V163.603H280.071C279.709 163.603 279.362 163.747 279.106 164.004C278.85 164.26 278.706 164.607 278.706 164.97C278.706 165.332 278.85 165.68 279.106 165.936C279.362 166.192 279.709 166.336 280.071 166.336H281.133V167.399C281.133 167.762 281.277 168.109 281.533 168.365C281.788 168.622 282.136 168.766 282.498 168.766C282.86 168.766 283.207 168.622 283.463 168.365C283.719 168.109 283.863 167.762 283.863 167.399V166.336H284.924C285.286 166.336 285.634 166.192 285.89 165.936C286.145 165.68 286.289 165.332 286.289 164.97C286.289 164.607 286.145 164.26 285.89 164.004C285.634 163.747 285.286 163.603 284.924 163.603Z" fill="#3D3D3D"/>
<path d="M97.6763 192.802H96.6146V191.739C96.6146 191.376 96.4708 191.029 96.2148 190.773C95.9588 190.516 95.6117 190.372 95.2496 190.372C94.8876 190.372 94.5404 190.516 94.2844 190.773C94.0285 191.029 93.8847 191.376 93.8847 191.739V192.802H92.823C92.461 192.802 92.1138 192.946 91.8578 193.202C91.6018 193.458 91.458 193.806 91.458 194.168C91.458 194.531 91.6018 194.878 91.8578 195.134C92.1138 195.391 92.461 195.535 92.823 195.535H93.8847V196.597C93.8847 196.96 94.0285 197.307 94.2844 197.564C94.5404 197.82 94.8876 197.964 95.2496 197.964C95.6117 197.964 95.9588 197.82 96.2148 197.564C96.4708 197.307 96.6146 196.96 96.6146 196.597V195.535H97.6763C98.0383 195.535 98.3855 195.391 98.6415 195.134C98.8975 194.878 99.0413 194.531 99.0413 194.168C99.0413 193.806 98.8975 193.458 98.6415 193.202C98.3855 192.946 98.0383 192.802 97.6763 192.802Z" fill="#3D3D3D"/>
<path d="M101.176 95.8636H100.115V94.8007C100.115 94.4383 99.9708 94.0908 99.7148 93.8345C99.4588 93.5782 99.1117 93.4343 98.7496 93.4343C98.3876 93.4343 98.0404 93.5782 97.7844 93.8345C97.5285 94.0908 97.3847 94.4383 97.3847 94.8007V95.8636H96.323C95.961 95.8636 95.6138 96.0075 95.3578 96.2638C95.1018 96.5201 94.958 96.8676 94.958 97.23C94.958 97.5924 95.1018 97.94 95.3578 98.1963C95.6138 98.4525 95.961 98.5965 96.323 98.5965H97.3847V99.6593C97.3847 100.022 97.5285 100.369 97.7844 100.626C98.0404 100.882 98.3876 101.026 98.7496 101.026C99.1117 101.026 99.4588 100.882 99.7148 100.626C99.9708 100.369 100.115 100.022 100.115 99.6593V98.5965H101.176C101.538 98.5965 101.885 98.4525 102.141 98.1963C102.397 97.94 102.541 97.5924 102.541 97.23C102.541 96.8676 102.397 96.5201 102.141 96.2638C101.885 96.0075 101.538 95.8636 101.176 95.8636Z" fill="#3D3D3D"/>
<path d="M340.998 251.105H107.58C103.337 251.105 99.2683 252.766 96.268 255.723C93.2678 258.68 91.5823 262.69 91.5823 266.872C91.5823 271.053 93.2678 275.064 96.268 278.021C99.2683 280.978 103.337 282.639 107.58 282.639H340.998C343.27 282.639 345.516 282.162 347.585 281.238C349.655 280.314 351.501 278.966 353 277.283C353.678 276.522 354.281 275.699 354.801 274.826C355.203 274.156 355.552 273.456 355.845 272.733C356.819 270.341 357.183 267.75 356.905 265.187C356.627 262.624 355.716 260.167 354.25 258.032C352.785 255.897 350.81 254.149 348.5 252.942C346.189 251.734 343.613 251.103 340.998 251.105Z" fill="#E0E0E0"/>
<path d="M355.829 274.463C350.657 280.485 345.062 286.143 339.086 291.398H109.493C103.517 286.143 97.9218 280.485 92.749 274.463H355.829Z" fill="#3F3D56"/>
<path d="M243.524 214.315H205.048C204.841 214.313 204.635 214.345 204.438 214.41C204.02 214.54 203.655 214.8 203.396 215.154C203.137 215.507 202.997 215.934 202.998 216.373V277.383H245.581V216.373C245.58 216.103 245.527 215.834 245.423 215.584C245.32 215.335 245.168 215.107 244.977 214.916C244.786 214.725 244.56 214.574 244.31 214.47C244.061 214.367 243.794 214.314 243.524 214.315ZM228.962 244.415C228.964 245.405 228.639 246.367 228.038 247.152C227.464 247.913 226.667 248.475 225.759 248.758C224.851 249.04 223.877 249.03 222.975 248.728C222.073 248.425 221.288 247.847 220.732 247.073C220.175 246.299 219.874 245.37 219.871 244.415V237.336C219.882 236.134 220.366 234.984 221.217 234.137C222.068 233.291 223.218 232.816 224.417 232.816C225.615 232.816 226.765 233.291 227.616 234.137C228.467 234.984 228.951 236.134 228.962 237.336V244.415Z" fill="#2F2E41"/>
<path d="M202.415 275.631V281.49C202.415 281.793 202.536 282.085 202.752 282.3C202.968 282.515 203.261 282.637 203.567 282.639H244.428C244.734 282.636 245.027 282.514 245.242 282.299C245.458 282.084 245.58 281.793 245.581 281.49V275.631H202.415Z" fill="#3F3D56"/>
<path d="M307.863 118.545H141.882C140.456 118.547 139.088 119.113 138.079 120.12C137.07 121.126 136.502 122.492 136.499 123.916V235.8C136.5 237.226 137.067 238.593 138.076 239.601C139.086 240.609 140.454 241.176 141.882 241.177H307.863C309.291 241.176 310.659 240.609 311.669 239.601C312.678 238.593 313.245 237.226 313.247 235.8V123.916C313.243 122.492 312.675 121.126 311.666 120.12C310.657 119.113 309.29 118.547 307.863 118.545Z" fill="#3F3D56"/>
<path d="M306.293 122.633H143.452C142.69 122.634 141.96 122.939 141.422 123.479C140.884 124.02 140.582 124.753 140.582 125.517V234.795C140.583 235.558 140.886 236.289 141.424 236.829C141.962 237.368 142.691 237.672 143.452 237.673H306.293C307.054 237.672 307.783 237.368 308.321 236.829C308.859 236.289 309.162 235.558 309.163 234.795V125.517C309.163 124.753 308.861 124.02 308.323 123.479C307.785 122.939 307.055 122.634 306.293 122.633Z" fill="#C1B5F1"/>
<path d="M276.46 282.748L274.958 275.345C274.896 275.043 274.762 274.762 274.568 274.528C274.374 274.293 274.127 274.113 273.849 274.003C273.648 273.921 273.434 273.879 273.217 273.879H179.445C179.229 273.879 179.015 273.921 178.814 274.003C178.536 274.113 178.288 274.293 178.095 274.528C177.901 274.762 177.767 275.043 177.705 275.345L176.203 282.748C176.148 283.017 176.153 283.295 176.215 283.562C176.277 283.828 176.396 284.078 176.563 284.291C176.729 284.504 176.94 284.676 177.179 284.794C177.417 284.913 177.679 284.974 177.943 284.975H274.714C274.979 284.976 275.242 284.915 275.481 284.796C275.721 284.677 275.931 284.503 276.097 284.288C276.264 284.075 276.383 283.827 276.446 283.561C276.509 283.294 276.514 283.017 276.46 282.748Z" fill="#2F2E41"/>
<path d="M182.823 275.631H180.007C179.818 275.631 179.665 275.759 179.665 275.916V277.098C179.665 277.255 179.818 277.383 180.007 277.383H182.823C183.012 277.383 183.165 277.255 183.165 277.098V275.916C183.165 275.759 183.012 275.631 182.823 275.631Z" fill="#3F3D56"/>
<path d="M188.713 275.631H186.366C186.209 275.631 186.081 275.759 186.081 275.916V277.098C186.081 277.255 186.209 277.383 186.366 277.383H188.713C188.87 277.383 188.998 277.255 188.998 277.098V275.916C188.998 275.759 188.87 275.631 188.713 275.631Z" fill="#3F3D56"/>
<path d="M194.546 275.631H192.199C192.042 275.631 191.915 275.759 191.915 275.916V277.098C191.915 277.255 192.042 277.383 192.199 277.383H194.546C194.704 277.383 194.831 277.255 194.831 277.098V275.916C194.831 275.759 194.704 275.631 194.546 275.631Z" fill="#3F3D56"/>
<path d="M200.38 275.631H198.033C197.875 275.631 197.748 275.759 197.748 275.916V277.098C197.748 277.255 197.875 277.383 198.033 277.383H200.38C200.537 277.383 200.664 277.255 200.664 277.098V275.916C200.664 275.759 200.537 275.631 200.38 275.631Z" fill="#3F3D56"/>
<path d="M206.213 275.631H203.866C203.709 275.631 203.581 275.759 203.581 275.916V277.098C203.581 277.255 203.709 277.383 203.866 277.383H206.213C206.37 277.383 206.498 277.255 206.498 277.098V275.916C206.498 275.759 206.37 275.631 206.213 275.631Z" fill="#3F3D56"/>
<path d="M212.63 275.631H210.283C210.125 275.631 209.998 275.759 209.998 275.916V277.098C209.998 277.255 210.125 277.383 210.283 277.383H212.63C212.787 277.383 212.914 277.255 212.914 277.098V275.916C212.914 275.759 212.787 275.631 212.63 275.631Z" fill="#3F3D56"/>
<path d="M218.463 275.631H216.116C215.959 275.631 215.831 275.759 215.831 275.916V277.098C215.831 277.255 215.959 277.383 216.116 277.383H218.463C218.62 277.383 218.748 277.255 218.748 277.098V275.916C218.748 275.759 218.62 275.631 218.463 275.631Z" fill="#3F3D56"/>
<path d="M224.296 275.631H221.949C221.792 275.631 221.664 275.759 221.664 275.916V277.098C221.664 277.255 221.792 277.383 221.949 277.383H224.296C224.453 277.383 224.581 277.255 224.581 277.098V275.916C224.581 275.759 224.453 275.631 224.296 275.631Z" fill="#3F3D56"/>
<path d="M230.129 275.631H227.782C227.625 275.631 227.498 275.759 227.498 275.916V277.098C227.498 277.255 227.625 277.383 227.782 277.383H230.129C230.287 277.383 230.414 277.255 230.414 277.098V275.916C230.414 275.759 230.287 275.631 230.129 275.631Z" fill="#3F3D56"/>
<path d="M236.489 275.631H233.673C233.484 275.631 233.331 275.759 233.331 275.916V277.098C233.331 277.255 233.484 277.383 233.673 277.383H236.489C236.678 277.383 236.831 277.255 236.831 277.098V275.916C236.831 275.759 236.678 275.631 236.489 275.631Z" fill="#3F3D56"/>
<path d="M242.379 275.631H240.032C239.875 275.631 239.747 275.759 239.747 275.916V277.098C239.747 277.255 239.875 277.383 240.032 277.383H242.379C242.536 277.383 242.664 277.255 242.664 277.098V275.916C242.664 275.759 242.536 275.631 242.379 275.631Z" fill="#3F3D56"/>
<path d="M248.212 275.631H245.865C245.708 275.631 245.581 275.759 245.581 275.916V277.098C245.581 277.255 245.708 277.383 245.865 277.383H248.212C248.37 277.383 248.497 277.255 248.497 277.098V275.916C248.497 275.759 248.37 275.631 248.212 275.631Z" fill="#3F3D56"/>
<path d="M254.046 275.631H251.699C251.542 275.631 251.414 275.759 251.414 275.916V277.098C251.414 277.255 251.542 277.383 251.699 277.383H254.046C254.203 277.383 254.331 277.255 254.331 277.098V275.916C254.331 275.759 254.203 275.631 254.046 275.631Z" fill="#3F3D56"/>
<path d="M259.879 275.631H257.532C257.375 275.631 257.247 275.759 257.247 275.916V277.098C257.247 277.255 257.375 277.383 257.532 277.383H259.879C260.036 277.383 260.164 277.255 260.164 277.098V275.916C260.164 275.759 260.036 275.631 259.879 275.631Z" fill="#3F3D56"/>
<path d="M266.296 275.631H263.949C263.791 275.631 263.664 275.759 263.664 275.916V277.098C263.664 277.255 263.791 277.383 263.949 277.383H266.296C266.453 277.383 266.58 277.255 266.58 277.098V275.916C266.58 275.759 266.453 275.631 266.296 275.631Z" fill="#3F3D56"/>
<path d="M272.129 275.631H269.782C269.625 275.631 269.497 275.759 269.497 275.916V277.098C269.497 277.255 269.625 277.383 269.782 277.383H272.129C272.286 277.383 272.414 277.255 272.414 277.098V275.916C272.414 275.759 272.286 275.631 272.129 275.631Z" fill="#3F3D56"/>
<path d="M182.297 278.551H179.95C179.792 278.551 179.665 278.679 179.665 278.836V280.018C179.665 280.175 179.792 280.303 179.95 280.303H182.297C182.454 280.303 182.581 280.175 182.581 280.018V278.836C182.581 278.679 182.454 278.551 182.297 278.551Z" fill="#3F3D56"/>
<path d="M188.713 278.551H186.366C186.209 278.551 186.081 278.679 186.081 278.836V280.018C186.081 280.175 186.209 280.303 186.366 280.303H188.713C188.87 280.303 188.998 280.175 188.998 280.018V278.836C188.998 278.679 188.87 278.551 188.713 278.551Z" fill="#3F3D56"/>
<path d="M194.546 278.551H192.199C192.042 278.551 191.915 278.679 191.915 278.836V280.018C191.915 280.175 192.042 280.303 192.199 280.303H194.546C194.704 280.303 194.831 280.175 194.831 280.018V278.836C194.831 278.679 194.704 278.551 194.546 278.551Z" fill="#3F3D56"/>
<path d="M200.38 278.551H198.033C197.875 278.551 197.748 278.679 197.748 278.836V280.018C197.748 280.175 197.875 280.303 198.033 280.303H200.38C200.537 280.303 200.664 280.175 200.664 280.018V278.836C200.664 278.679 200.537 278.551 200.38 278.551Z" fill="#3F3D56"/>
<path d="M206.213 278.551H203.866C203.709 278.551 203.581 278.679 203.581 278.836V280.018C203.581 280.175 203.709 280.303 203.866 280.303H206.213C206.37 280.303 206.498 280.175 206.498 280.018V278.836C206.498 278.679 206.37 278.551 206.213 278.551Z" fill="#3F3D56"/>
<path d="M212.573 278.551H209.756C209.567 278.551 209.414 278.679 209.414 278.836V280.018C209.414 280.175 209.567 280.303 209.756 280.303H212.573C212.761 280.303 212.914 280.175 212.914 280.018V278.836C212.914 278.679 212.761 278.551 212.573 278.551Z" fill="#3F3D56"/>
<path d="M218.463 278.551H216.116C215.959 278.551 215.831 278.679 215.831 278.836V280.018C215.831 280.175 215.959 280.303 216.116 280.303H218.463C218.62 280.303 218.748 280.175 218.748 280.018V278.836C218.748 278.679 218.62 278.551 218.463 278.551Z" fill="#3F3D56"/>
<path d="M224.296 278.551H221.949C221.792 278.551 221.664 278.679 221.664 278.836V280.018C221.664 280.175 221.792 280.303 221.949 280.303H224.296C224.453 280.303 224.581 280.175 224.581 280.018V278.836C224.581 278.679 224.453 278.551 224.296 278.551Z" fill="#3F3D56"/>
<path d="M230.129 278.551H227.782C227.625 278.551 227.498 278.679 227.498 278.836V280.018C227.498 280.175 227.625 280.303 227.782 280.303H230.129C230.287 280.303 230.414 280.175 230.414 280.018V278.836C230.414 278.679 230.287 278.551 230.129 278.551Z" fill="#3F3D56"/>
<path d="M235.963 278.551H233.616C233.458 278.551 233.331 278.679 233.331 278.836V280.018C233.331 280.175 233.458 280.303 233.616 280.303H235.963C236.12 280.303 236.247 280.175 236.247 280.018V278.836C236.247 278.679 236.12 278.551 235.963 278.551Z" fill="#3F3D56"/>
<path d="M242.379 278.551H240.032C239.875 278.551 239.747 278.679 239.747 278.836V280.018C239.747 280.175 239.875 280.303 240.032 280.303H242.379C242.536 280.303 242.664 280.175 242.664 280.018V278.836C242.664 278.679 242.536 278.551 242.379 278.551Z" fill="#3F3D56"/>
<path d="M248.212 278.551H245.865C245.708 278.551 245.581 278.679 245.581 278.836V280.018C245.581 280.175 245.708 280.303 245.865 280.303H248.212C248.37 280.303 248.497 280.175 248.497 280.018V278.836C248.497 278.679 248.37 278.551 248.212 278.551Z" fill="#3F3D56"/>
<path d="M254.046 278.551H251.699C251.542 278.551 251.414 278.679 251.414 278.836V280.018C251.414 280.175 251.542 280.303 251.699 280.303H254.046C254.203 280.303 254.331 280.175 254.331 280.018V278.836C254.331 278.679 254.203 278.551 254.046 278.551Z" fill="#3F3D56"/>
<path d="M259.879 278.551H257.532C257.375 278.551 257.247 278.679 257.247 278.836V280.018C257.247 280.175 257.375 280.303 257.532 280.303H259.879C260.036 280.303 260.164 280.175 260.164 280.018V278.836C260.164 278.679 260.036 278.551 259.879 278.551Z" fill="#3F3D56"/>
<path d="M266.239 278.551H263.422C263.234 278.551 263.081 278.679 263.081 278.836V280.018C263.081 280.175 263.234 280.303 263.422 280.303H266.239C266.428 280.303 266.581 280.175 266.581 280.018V278.836C266.581 278.679 266.428 278.551 266.239 278.551Z" fill="#3F3D56"/>
<path d="M272.129 278.551H269.782C269.625 278.551 269.497 278.679 269.497 278.836V280.018C269.497 280.175 269.625 280.303 269.782 280.303H272.129C272.286 280.303 272.414 280.175 272.414 280.018V278.836C272.414 278.679 272.286 278.551 272.129 278.551Z" fill="#3F3D56"/>
<path d="M231.872 282.055H208.54C208.378 282.055 208.248 282.182 208.248 282.34V283.522C208.248 283.679 208.378 283.807 208.54 283.807H231.872C232.034 283.807 232.164 283.679 232.164 283.522V282.34C232.164 282.182 232.034 282.055 231.872 282.055Z" fill="#3F3D56"/>
<path d="M298.071 137.816H145.841C145.683 137.812 145.532 137.749 145.421 137.64C145.311 137.531 145.249 137.384 145.249 137.232C145.249 137.079 145.311 136.932 145.421 136.823C145.532 136.714 145.683 136.651 145.841 136.648H298.071C298.23 136.651 298.38 136.714 298.491 136.823C298.602 136.932 298.664 137.079 298.664 137.232C298.664 137.384 298.602 137.531 298.491 137.64C298.38 137.749 298.23 137.812 298.071 137.816Z" fill="#3F3D56"/>
<path d="M156.332 133.144C158.265 133.144 159.832 131.575 159.832 129.64C159.832 127.705 158.265 126.136 156.332 126.136C154.399 126.136 152.832 127.705 152.832 129.64C152.832 131.575 154.399 133.144 156.332 133.144Z" fill="#3F3D56"/>
<path d="M168.582 133.144C170.514 133.144 172.081 131.575 172.081 129.64C172.081 127.705 170.514 126.136 168.582 126.136C166.649 126.136 165.082 127.705 165.082 129.64C165.082 131.575 166.649 133.144 168.582 133.144Z" fill="#3F3D56"/>
<path d="M180.831 133.144C182.764 133.144 184.331 131.575 184.331 129.64C184.331 127.705 182.764 126.136 180.831 126.136C178.898 126.136 177.331 127.705 177.331 129.64C177.331 131.575 178.898 133.144 180.831 133.144Z" fill="#3F3D56"/>
<path d="M290.436 126.72H281.802C281.631 126.726 281.469 126.82 281.35 126.984C281.23 127.148 281.164 127.367 281.164 127.596C281.164 127.825 281.23 128.045 281.35 128.208C281.469 128.372 281.631 128.467 281.802 128.472H290.436C290.608 128.469 290.771 128.375 290.892 128.211C291.013 128.047 291.08 127.826 291.08 127.596C291.08 127.366 291.013 127.145 290.892 126.981C290.771 126.817 290.608 126.723 290.436 126.72Z" fill="#3F3D56"/>
<path d="M290.435 129.64H281.803C281.632 129.643 281.469 129.706 281.35 129.816C281.23 129.925 281.164 130.071 281.164 130.224C281.164 130.377 281.23 130.523 281.35 130.632C281.469 130.742 281.632 130.805 281.803 130.808H290.435C290.607 130.806 290.771 130.744 290.892 130.634C291.012 130.525 291.08 130.378 291.08 130.224C291.08 130.07 291.012 129.923 290.892 129.814C290.771 129.704 290.607 129.642 290.435 129.64Z" fill="#3F3D56"/>
<path d="M290.436 131.976H281.802C281.631 131.979 281.469 132.043 281.35 132.152C281.23 132.261 281.164 132.407 281.164 132.56C281.164 132.712 281.23 132.859 281.35 132.968C281.469 133.077 281.631 133.14 281.802 133.144H290.436C290.608 133.142 290.771 133.079 290.892 132.97C291.013 132.861 291.08 132.713 291.08 132.56C291.08 132.406 291.013 132.259 290.892 132.15C290.771 132.041 290.608 131.978 290.436 131.976Z" fill="#3F3D56"/>
<path d="M158.736 151.831H155.677C154.75 151.831 153.998 152.615 153.998 153.583C153.998 154.55 154.75 155.334 155.677 155.334H158.736C159.663 155.334 160.415 154.55 160.415 153.583C160.415 152.615 159.663 151.831 158.736 151.831Z" fill="#E6E6E6"/>
<path d="M194.75 151.831H191.413C190.401 151.831 189.581 152.615 189.581 153.583C189.581 154.55 190.401 155.334 191.413 155.334H194.75C195.761 155.334 196.581 154.55 196.581 153.583C196.581 152.615 195.761 151.831 194.75 151.831Z" fill="#E6E6E6"/>
<path d="M204.819 151.831H201.76C200.833 151.831 200.081 152.615 200.081 153.583C200.081 154.55 200.833 155.334 201.76 155.334H204.819C205.746 155.334 206.498 154.55 206.498 153.583C206.498 152.615 205.746 151.831 204.819 151.831Z" fill="#E6E6E6"/>
<path d="M184.957 151.247H165.623C164.679 151.247 163.915 152.031 163.915 152.999C163.915 153.966 164.679 154.751 165.623 154.751H184.957C185.9 154.751 186.665 153.966 186.665 152.999C186.665 152.031 185.9 151.247 184.957 151.247Z" fill="#E6E6E6"/>
<path d="M232.79 151.247H213.456C212.512 151.247 211.748 152.031 211.748 152.999C211.748 153.966 212.512 154.751 213.456 154.751H232.79C233.733 154.751 234.498 153.966 234.498 152.999C234.498 152.031 233.733 151.247 232.79 151.247Z" fill="#E6E6E6"/>
<path d="M168.652 159.422H165.594C164.667 159.422 163.915 160.207 163.915 161.174C163.915 162.142 164.667 162.926 165.594 162.926H168.652C169.58 162.926 170.331 162.142 170.331 161.174C170.331 160.207 169.58 159.422 168.652 159.422Z" fill="#E6E6E6"/>
<path d="M204.235 159.422H201.177C200.25 159.422 199.498 160.207 199.498 161.174C199.498 162.142 200.25 162.926 201.177 162.926H204.235C205.163 162.926 205.914 162.142 205.914 161.174C205.914 160.207 205.163 159.422 204.235 159.422Z" fill="#E6E6E6"/>
<path d="M214.152 159.422H211.093C210.166 159.422 209.414 160.207 209.414 161.174C209.414 162.142 210.166 162.926 211.093 162.926H214.152C215.079 162.926 215.831 162.142 215.831 161.174C215.831 160.207 215.079 159.422 214.152 159.422Z" fill="#E6E6E6"/>
<path d="M194.29 159.422H174.956C174.013 159.422 173.248 160.207 173.248 161.174C173.248 162.142 174.013 162.926 174.956 162.926H194.29C195.233 162.926 195.998 162.142 195.998 161.174C195.998 160.207 195.233 159.422 194.29 159.422Z" fill="#E6E6E6"/>
<path d="M242.123 159.422H222.789C221.846 159.422 221.081 160.207 221.081 161.174C221.081 162.142 221.846 162.926 222.789 162.926H242.123C243.066 162.926 243.831 162.142 243.831 161.174C243.831 160.207 243.066 159.422 242.123 159.422Z" fill="#E6E6E6"/>
<path d="M177.986 167.014H174.927C174 167.014 173.248 167.798 173.248 168.766C173.248 169.733 174 170.518 174.927 170.518H177.986C178.913 170.518 179.665 169.733 179.665 168.766C179.665 167.798 178.913 167.014 177.986 167.014Z" fill="#E6E6E6"/>
<path d="M213.569 167.014H210.51C209.583 167.014 208.831 167.798 208.831 168.766C208.831 169.733 209.583 170.518 210.51 170.518H213.569C214.496 170.518 215.248 169.733 215.248 168.766C215.248 167.798 214.496 167.014 213.569 167.014Z" fill="#E6E6E6"/>
<path d="M224.069 167.014H221.01C220.083 167.014 219.331 167.798 219.331 168.766C219.331 169.733 220.083 170.518 221.01 170.518H224.069C224.996 170.518 225.748 169.733 225.748 168.766C225.748 167.798 224.996 167.014 224.069 167.014Z" fill="#E6E6E6"/>
<path d="M204.207 167.014H184.872C183.929 167.014 183.165 167.798 183.165 168.766C183.165 169.733 183.929 170.518 184.872 170.518H204.207C205.15 170.518 205.914 169.733 205.914 168.766C205.914 167.798 205.15 167.014 204.207 167.014Z" fill="#E6E6E6"/>
<path d="M251.996 167.014H232.166C231.198 167.014 230.414 167.798 230.414 168.766C230.414 169.733 231.198 170.518 232.166 170.518H251.996C252.963 170.518 253.747 169.733 253.747 168.766C253.747 167.798 252.963 167.014 251.996 167.014Z" fill="#E6E6E6"/>
<path d="M187.319 175.189H184.26C183.333 175.189 182.581 175.974 182.581 176.941C182.581 177.909 183.333 178.693 184.26 178.693H187.319C188.246 178.693 188.998 177.909 188.998 176.941C188.998 175.974 188.246 175.189 187.319 175.189Z" fill="#E6E6E6"/>
<path d="M223.485 175.189H220.427C219.499 175.189 218.748 175.974 218.748 176.941C218.748 177.909 219.499 178.693 220.427 178.693H223.485C224.412 178.693 225.164 177.909 225.164 176.941C225.164 175.974 224.412 175.189 223.485 175.189Z" fill="#E6E6E6"/>
<path d="M233.402 175.189H230.343C229.416 175.189 228.664 175.974 228.664 176.941C228.664 177.909 229.416 178.693 230.343 178.693H233.402C234.329 178.693 235.081 177.909 235.081 176.941C235.081 175.974 234.329 175.189 233.402 175.189Z" fill="#E6E6E6"/>
<path d="M213.54 174.605H194.206C193.262 174.605 192.498 175.39 192.498 176.357C192.498 177.325 193.262 178.109 194.206 178.109H213.54C214.483 178.109 215.248 177.325 215.248 176.357C215.248 175.39 214.483 174.605 213.54 174.605Z" fill="#E6E6E6"/>
<path d="M194.75 206.139H191.413C190.401 206.139 189.581 206.924 189.581 207.891C189.581 208.859 190.401 209.643 191.413 209.643H194.75C195.761 209.643 196.581 208.859 196.581 207.891C196.581 206.924 195.761 206.139 194.75 206.139Z" fill="#E6E6E6"/>
<path d="M204.819 206.139H201.76C200.833 206.139 200.081 206.924 200.081 207.891C200.081 208.859 200.833 209.643 201.76 209.643H204.819C205.746 209.643 206.498 208.859 206.498 207.891C206.498 206.924 205.746 206.139 204.819 206.139Z" fill="#E6E6E6"/>
<path d="M232.79 206.139H213.456C212.512 206.139 211.748 206.924 211.748 207.891C211.748 208.859 212.512 209.643 213.456 209.643H232.79C233.733 209.643 234.498 208.859 234.498 207.891C234.498 206.924 233.733 206.139 232.79 206.139Z" fill="#E6E6E6"/>
<path d="M158.736 206.139H155.677C154.75 206.139 153.998 206.924 153.998 207.891C153.998 208.859 154.75 209.643 155.677 209.643H158.736C159.663 209.643 160.415 208.859 160.415 207.891C160.415 206.924 159.663 206.139 158.736 206.139Z" fill="#E6E6E6"/>
<path d="M184.957 206.139H165.623C164.679 206.139 163.915 206.924 163.915 207.891C163.915 208.859 164.679 209.643 165.623 209.643H184.957C185.9 209.643 186.665 208.859 186.665 207.891C186.665 206.924 185.9 206.139 184.957 206.139Z" fill="#E6E6E6"/>
<path d="M168.652 197.964H165.594C164.667 197.964 163.915 198.748 163.915 199.716C163.915 200.683 164.667 201.468 165.594 201.468H168.652C169.58 201.468 170.331 200.683 170.331 199.716C170.331 198.748 169.58 197.964 168.652 197.964Z" fill="#E6E6E6"/>
<path d="M204.235 197.964H201.177C200.25 197.964 199.498 198.748 199.498 199.716C199.498 200.683 200.25 201.468 201.177 201.468H204.235C205.163 201.468 205.914 200.683 205.914 199.716C205.914 198.748 205.163 197.964 204.235 197.964Z" fill="#E6E6E6"/>
<path d="M214.152 197.964H211.093C210.166 197.964 209.414 198.748 209.414 199.716C209.414 200.683 210.166 201.468 211.093 201.468H214.152C215.079 201.468 215.831 200.683 215.831 199.716C215.831 198.748 215.079 197.964 214.152 197.964Z" fill="#E6E6E6"/>
<path d="M194.29 198.548H174.956C174.013 198.548 173.248 199.332 173.248 200.3C173.248 201.267 174.013 202.052 174.956 202.052H194.29C195.233 202.052 195.998 201.267 195.998 200.3C195.998 199.332 195.233 198.548 194.29 198.548Z" fill="#E6E6E6"/>
<path d="M177.986 190.372H174.927C174 190.372 173.248 191.157 173.248 192.124C173.248 193.092 174 193.876 174.927 193.876H177.986C178.913 193.876 179.665 193.092 179.665 192.124C179.665 191.157 178.913 190.372 177.986 190.372Z" fill="#E6E6E6"/>
<path d="M213.569 190.372H210.51C209.583 190.372 208.831 191.157 208.831 192.124C208.831 193.092 209.583 193.876 210.51 193.876H213.569C214.496 193.876 215.248 193.092 215.248 192.124C215.248 191.157 214.496 190.372 213.569 190.372Z" fill="#E6E6E6"/>
<path d="M224.069 190.372H221.01C220.083 190.372 219.331 191.157 219.331 192.124C219.331 193.092 220.083 193.876 221.01 193.876H224.069C224.996 193.876 225.748 193.092 225.748 192.124C225.748 191.157 224.996 190.372 224.069 190.372Z" fill="#E6E6E6"/>
<path d="M204.207 190.956H184.872C183.929 190.956 183.165 191.61 183.165 192.416C183.165 193.222 183.929 193.876 184.872 193.876H204.207C205.15 193.876 205.914 193.222 205.914 192.416C205.914 191.61 205.15 190.956 204.207 190.956Z" fill="#E6E6E6"/>
<path d="M187.319 182.781H184.26C183.333 182.781 182.581 183.565 182.581 184.533C182.581 185.5 183.333 186.285 184.26 186.285H187.319C188.246 186.285 188.998 185.5 188.998 184.533C188.998 183.565 188.246 182.781 187.319 182.781Z" fill="#E6E6E6"/>
<path d="M223.485 182.781H220.427C219.499 182.781 218.748 183.565 218.748 184.533C218.748 185.5 219.499 186.285 220.427 186.285H223.485C224.412 186.285 225.164 185.5 225.164 184.533C225.164 183.565 224.412 182.781 223.485 182.781Z" fill="#E6E6E6"/>
<path d="M233.402 182.781H230.343C229.416 182.781 228.664 183.565 228.664 184.533C228.664 185.5 229.416 186.285 230.343 186.285H233.402C234.329 186.285 235.081 185.5 235.081 184.533C235.081 183.565 234.329 182.781 233.402 182.781Z" fill="#E6E6E6"/>
<path d="M213.54 182.781H194.206C193.262 182.781 192.498 183.565 192.498 184.533C192.498 185.5 193.262 186.285 194.206 186.285H213.54C214.483 186.285 215.248 185.5 215.248 184.533C215.248 183.565 214.483 182.781 213.54 182.781Z" fill="#E6E6E6"/>
<path d="M299.83 318.319C299.467 318.505 299.098 318.69 298.735 318.869C289.331 323.588 281.809 326.27 271.518 329.209C270.649 319.472 269.81 302.359 268.995 291.75C268.781 288.996 268.566 286.685 268.358 285.054C268.305 284.187 268.129 283.332 267.834 282.515L267.87 285.054L267.959 291.75L268.477 330.045C255.677 333.444 242.527 335.346 229.292 335.714C228.601 335.732 227.923 335.744 227.268 335.756C227.036 335.761 226.81 335.767 226.584 335.767C225.84 335.773 225.102 335.779 224.358 335.779C210.41 335.79 196.512 334.099 182.97 330.744C183.262 321.109 183.553 304.187 183.833 291.75C183.893 289.319 183.946 287.055 184.006 285.054C184.119 280.777 184.238 277.695 184.351 276.661C184.251 276.845 184.173 277.039 184.119 277.241C183.568 279.817 183.192 282.427 182.994 285.054C182.786 287.055 182.577 289.319 182.369 291.75C181.262 304.67 180.107 322.238 178.917 329.687C171.832 327.745 164.88 325.345 158.104 322.501C154.533 321.007 151.026 319.397 147.582 317.668C148.236 313.367 148.921 308.547 149.623 303.547C150.171 299.671 150.736 295.686 151.313 291.75C152.206 285.669 153.123 279.708 154.051 274.457C155.408 266.788 156.801 260.623 158.182 257.792C159.491 255.104 160.8 252.452 162.068 249.913C162.508 249.023 162.949 248.145 163.377 247.291C163.479 247.088 163.58 246.89 163.681 246.693C164.592 244.895 165.472 243.175 166.312 241.562C167.032 240.182 167.716 238.88 168.365 237.68C169.936 234.765 171.269 232.441 172.257 230.972C176.388 224.683 182.537 220.002 189.684 217.705L189.862 217.657L189.987 217.711L202.158 213.96L203.938 213.41L205.134 213.04L209.348 209.82L211.639 208.07L213.788 206.427L217.989 203.22L244.004 204.826L249.069 217.066L260.413 221.229L260.609 221.139L260.782 221.068L260.96 221.116C268.106 223.415 274.254 228.096 278.386 234.382C278.946 235.225 279.624 236.336 280.392 237.68C281.047 238.821 281.761 240.123 282.535 241.562C283.636 243.611 284.838 245.923 286.112 248.426C286.391 248.975 286.677 249.537 286.963 250.104C287.492 251.155 288.03 252.229 288.576 253.324C289.843 255.862 291.153 258.515 292.462 261.208C293.599 263.544 294.747 268.347 295.878 274.457C296.813 279.535 297.741 285.52 298.64 291.75C299.818 299.826 298.562 309.497 299.628 316.928C299.693 317.399 299.765 317.859 299.83 318.319Z" fill="#A3A3A3"/>
<path d="M224.581 193.292C241.333 193.292 254.914 179.697 254.914 162.926C254.914 146.155 241.333 132.56 224.581 132.56C207.828 132.56 194.248 146.155 194.248 162.926C194.248 179.697 207.828 193.292 224.581 193.292Z" fill="#D69274"/>
<path d="M274.612 122.604C274.012 121.205 273.214 119.9 272.242 118.728C267.634 113.106 259.254 110.632 250.652 117.285C248.996 116.916 247.27 117.015 245.668 117.572C244.911 117.845 244.202 118.235 243.567 118.728C242.264 119.743 241.248 121.078 240.618 122.604C240.281 123.409 240.06 124.258 239.961 125.126C237.835 124.022 235.585 123.175 233.258 122.604C227.549 121.185 221.579 121.185 215.87 122.604C214.04 123.066 212.279 123.763 210.629 124.678C207.835 126.288 206.23 128.321 205.943 130.581C201.914 130.807 197.724 132.924 194.602 136.394C194.249 136.781 193.909 137.187 193.593 137.604C190.968 141.035 189.557 145.24 189.582 149.558V150.315H190.34C192.417 150.313 194.474 150.714 196.398 151.496C197.645 151.996 198.826 152.647 199.914 153.433C200.626 153.938 201.299 154.496 201.926 155.103C203.38 156.509 204.612 158.127 205.579 159.902C208.059 164.388 208.919 169.59 208.014 174.635C207.807 175.802 207.503 176.951 207.107 178.069C206.543 179.664 205.8 181.19 204.893 182.618C204.857 182.671 204.827 182.725 204.791 182.779C204.391 183.417 204.009 184.066 203.651 184.722C203.382 185.211 203.132 185.712 202.899 186.213C202.218 187.607 201.644 189.05 201.18 190.529C200.349 193.147 199.859 195.86 199.723 198.602C199.681 199.329 199.669 200.057 199.693 200.784C199.729 202.659 199.935 204.527 200.308 206.365C200.362 206.615 200.416 206.859 200.469 207.11L200.905 209.012L201.938 213.549L202.654 216.673L203.317 219.571L204.296 218.17C204.63 217.693 205.472 216.226 206.6 214.151C207.346 212.798 208.211 211.182 209.149 209.417C210.456 206.943 211.888 204.182 213.291 201.428C213.858 200.313 214.419 199.204 214.962 198.119C215.989 196.062 216.956 194.077 217.786 192.312C218.55 190.684 219.201 189.242 219.684 188.085C219.833 188.842 219.959 189.611 220.054 190.386C220.162 191.173 220.239 191.972 220.281 192.771C220.293 192.89 220.299 193.016 220.305 193.135L220.329 193.624L220.335 193.767L220.967 193.85C224.617 194.241 228.296 194.269 231.951 193.934H231.957C236.798 193.57 241.548 192.42 246.02 190.529C248.56 189.429 250.931 187.976 253.064 186.213C254.06 185.389 254.99 184.488 255.845 183.518C256.06 183.274 256.269 183.029 256.472 182.779C257.653 181.329 258.665 179.748 259.486 178.069C260.037 176.96 260.504 175.812 260.883 174.635C263.175 167.701 263.044 159.05 260.489 148.771C261.179 148.638 261.84 148.384 262.441 148.02C264.315 146.893 265.617 144.657 266.023 141.927L266.667 142.1C268.953 141.036 270.988 139.505 272.642 137.604C272.97 137.217 273.277 136.813 273.562 136.394C276.481 132.101 276.504 126.95 274.612 122.604Z" fill="#2F2E41"/>
<path opacity="0.2" d="M174.998 274.463L179.955 254.608L184.331 271.741L174.998 274.463Z" fill="black"/>
<path d="M309.747 261.419C307.935 286.519 309.812 297.571 299.813 318.267C290.715 322.745 281.239 326.4 271.496 329.187C270.483 329.474 269.468 329.754 268.451 330.026C255.635 333.436 242.469 335.345 229.217 335.713C228.526 335.731 227.847 335.743 227.191 335.755C226.959 335.761 226.732 335.767 226.506 335.767C225.761 335.773 225.022 335.779 224.277 335.779C210.312 335.79 196.397 334.093 182.839 330.727C181.48 330.391 180.127 330.038 178.781 329.666C171.687 327.718 164.726 325.31 157.942 322.456C154.367 320.958 150.855 319.341 147.407 317.607C146.626 317.212 145.845 316.816 145.077 316.409C141.126 309.42 138.879 300.922 138.832 290.709C141.567 273.112 303.704 246.243 309.747 261.419Z" fill="#CCCCCC"/>
<path opacity="0.2" d="M310.012 265.682C310.105 264.126 310.209 262.517 310.33 260.843C304.267 245.64 141.576 272.557 138.832 290.186C138.839 291.802 138.908 293.371 139.024 294.902C145.67 277.503 300.229 251.919 310.012 265.682Z" fill="#3F3D56"/>
<path d="M149.279 194.489C149.318 193.942 149.241 193.393 149.051 192.879C148.862 192.365 148.564 191.898 148.179 191.509C147.794 191.119 147.331 190.817 146.819 190.623C146.308 190.428 145.761 190.345 145.215 190.38C145.012 190.388 144.809 190.413 144.61 190.456L120.683 195.871C120.148 196 119.647 196.241 119.21 196.577C118.774 196.913 118.413 197.337 118.15 197.821C117.799 197.834 117.451 197.885 117.111 197.972C116.366 198.141 115.662 198.455 115.039 198.897C114.415 199.339 113.885 199.899 113.478 200.546C113.071 201.193 112.795 201.914 112.666 202.668C112.537 203.421 112.557 204.193 112.726 204.939C112.895 205.685 113.208 206.39 113.649 207.015C114.09 207.639 114.649 208.17 115.295 208.578C116.6 209.402 118.177 209.673 119.681 209.332C120.537 209.133 121.338 208.745 122.025 208.196L130.133 231.066C130.538 231.783 131.163 232.349 131.916 232.68C132.669 233.011 133.509 233.089 134.31 232.903L149.864 229.381C150.659 229.195 151.374 228.761 151.907 228.142C152.441 227.523 152.764 226.75 152.832 225.935L149.279 194.489ZM119.322 207.703C118.248 207.946 117.122 207.752 116.19 207.164C115.259 206.577 114.598 205.643 114.353 204.568C114.108 203.492 114.298 202.364 114.882 201.429C115.467 200.494 116.397 199.83 117.47 199.581C117.545 199.562 117.621 199.581 117.697 199.562C117.691 200.252 117.867 200.931 118.207 201.531L121.174 206.719C120.658 207.21 120.017 207.55 119.322 207.703Z" fill="#2F2E41"/>
<path d="M145.241 190.372C145.469 193.497 140.273 197.089 133.313 198.515C126.921 199.862 121.194 198.925 119.582 196.465C119.906 196.267 120.258 196.122 120.625 196.035L144.634 190.451C144.834 190.406 145.037 190.38 145.241 190.372Z" fill="#3F3D56"/>
<path d="M128.984 266.872L142.332 260.177L131.209 230.052L128.277 214.86C127.896 212.886 127.006 211.047 125.694 209.527C124.383 208.006 122.697 206.858 120.804 206.196C118.912 205.534 116.879 205.382 114.91 205.755C112.941 206.128 111.103 207.012 109.581 208.321C107.326 210.26 105.91 213.001 105.633 215.968C105.355 218.934 106.236 221.892 108.092 224.218L118.973 237.862L128.984 266.872Z" fill="#D69274"/>
<path d="M141.971 254.562L124.249 263.486L137.698 305.924C138.664 308.971 140.395 311.716 142.724 313.891C145.053 316.066 147.9 317.599 150.991 318.34C154.801 319.253 158.801 318.921 162.411 317.391C166.021 315.861 169.054 313.213 171.069 309.831L206.732 248.272C209.26 244.03 210.04 238.961 208.906 234.148C207.772 229.334 204.815 225.158 200.665 222.511C198.433 221.088 195.928 220.154 193.314 219.769C190.7 219.385 188.034 219.559 185.491 220.281C182.948 221.003 180.585 222.256 178.555 223.958C176.524 225.66 174.873 227.774 173.707 230.162L151.939 276.871L141.971 254.562Z" fill="#A3A3A3"/>
<path d="M136.771 216.067C136.736 216.067 136.702 216.062 136.67 216.052L132.625 214.822C132.576 214.807 132.532 214.782 132.497 214.749C132.462 214.715 132.438 214.674 132.425 214.63C132.412 214.586 132.412 214.54 132.425 214.495C132.437 214.451 132.462 214.41 132.497 214.377L135.505 211.485C135.533 211.458 135.566 211.436 135.603 211.421C135.64 211.406 135.681 211.397 135.721 211.395C135.762 211.394 135.803 211.399 135.842 211.412C135.88 211.424 135.915 211.443 135.946 211.467C135.976 211.492 136 211.521 136.017 211.554C136.035 211.587 136.044 211.622 136.046 211.658C136.048 211.695 136.041 211.731 136.027 211.765C136.013 211.798 135.991 211.83 135.964 211.856L133.277 214.439L136.872 215.532C136.942 215.554 137 215.596 137.038 215.652C137.076 215.708 137.09 215.773 137.078 215.837C137.066 215.902 137.028 215.96 136.972 216.002C136.916 216.044 136.844 216.067 136.771 216.067Z" fill="#8571D6"/>
<path d="M141.91 215.483C141.849 215.483 141.79 215.464 141.739 215.43C141.688 215.396 141.649 215.347 141.626 215.29C141.603 215.233 141.598 215.17 141.61 215.11C141.623 215.049 141.653 214.994 141.697 214.952L144.392 212.325L140.772 210.822C140.735 210.806 140.701 210.784 140.672 210.755C140.644 210.726 140.621 210.692 140.605 210.655C140.59 210.617 140.582 210.577 140.582 210.537C140.582 210.496 140.59 210.456 140.605 210.418C140.62 210.381 140.643 210.347 140.671 210.318C140.7 210.289 140.734 210.266 140.771 210.251C140.808 210.235 140.848 210.227 140.888 210.227C140.928 210.227 140.968 210.235 141.006 210.251L145.058 211.934C145.106 211.954 145.147 211.985 145.179 212.024C145.211 212.064 145.233 212.111 145.243 212.162C145.253 212.212 145.249 212.264 145.234 212.313C145.219 212.362 145.192 212.406 145.155 212.442L142.124 215.396C142.066 215.452 141.99 215.483 141.91 215.483Z" fill="#8571D6"/>
<path d="M137.394 218.403C137.363 218.403 137.332 218.398 137.302 218.389C137.263 218.377 137.226 218.357 137.195 218.331C137.163 218.305 137.137 218.273 137.118 218.237C137.099 218.201 137.087 218.162 137.083 218.121C137.079 218.081 137.084 218.04 137.096 218.001L139.972 208.693C139.997 208.615 140.052 208.549 140.125 208.511C140.198 208.473 140.283 208.465 140.362 208.489C140.441 208.513 140.507 208.568 140.545 208.64C140.584 208.713 140.592 208.798 140.568 208.876L137.692 218.184C137.672 218.247 137.632 218.303 137.579 218.342C137.525 218.381 137.46 218.403 137.394 218.403Z" fill="#8571D6"/>
</svg>
