<svg width="89" height="88" viewBox="0 0 89 88" fill="none" xmlns="http://www.w3.org/2000/svg">
<path d="M33.768 65L16.776 42.68V65H4.464V14.456H16.776V36.632L33.624 14.456H48.096L28.512 39.224L48.816 65H33.768Z" fill="#E0E0E0"/>
<path d="M33.768 65L32.9723 65.6057L33.2725 66H33.768V65ZM16.776 42.68L17.5717 42.0743L15.776 39.7156V42.68H16.776ZM16.776 65V66H17.776V65H16.776ZM4.464 65H3.464V66H4.464V65ZM4.464 14.456V13.456H3.464V14.456H4.464ZM16.776 14.456H17.776V13.456H16.776V14.456ZM16.776 36.632H15.776V39.6013L17.5723 37.237L16.776 36.632ZM33.624 14.456V13.456H33.1279L32.8277 13.851L33.624 14.456ZM48.096 14.456L48.8804 15.0762L50.1615 13.456H48.096V14.456ZM28.512 39.224L27.7276 38.6038L27.2381 39.2228L27.7264 39.8428L28.512 39.224ZM48.816 65V66H50.8767L49.6016 64.3812L48.816 65ZM34.5637 64.3943L17.5717 42.0743L15.9803 43.2857L32.9723 65.6057L34.5637 64.3943ZM15.776 42.68V65H17.776V42.68H15.776ZM16.776 64H4.464V66H16.776V64ZM5.464 65V14.456H3.464V65H5.464ZM4.464 15.456H16.776V13.456H4.464V15.456ZM15.776 14.456V36.632H17.776V14.456H15.776ZM17.5723 37.237L34.4203 15.061L32.8277 13.851L15.9797 36.027L17.5723 37.237ZM33.624 15.456H48.096V13.456H33.624V15.456ZM47.3116 13.8358L27.7276 38.6038L29.2964 39.8442L48.8804 15.0762L47.3116 13.8358ZM27.7264 39.8428L48.0304 65.6188L49.6016 64.3812L29.2976 38.6052L27.7264 39.8428ZM48.816 64H33.768V66H48.816V64Z" fill="#E0E0E0"/>
<path d="M59.368 82.504C54.616 82.504 50.248 81.4 46.264 79.192C42.328 76.984 39.184 73.912 36.832 69.976C34.528 65.992 33.376 61.528 33.376 56.584C33.376 51.64 34.528 47.2 36.832 43.264C39.184 39.328 42.328 36.256 46.264 34.048C50.248 31.84 54.616 30.736 59.368 30.736C64.12 30.736 68.464 31.84 72.4 34.048C76.384 36.256 79.504 39.328 81.76 43.264C84.064 47.2 85.216 51.64 85.216 56.584C85.216 61.528 84.064 65.992 81.76 69.976C79.456 73.912 76.336 76.984 72.4 79.192C68.464 81.4 64.12 82.504 59.368 82.504ZM59.368 71.272C63.4 71.272 66.616 69.928 69.016 67.24C71.464 64.552 72.688 61 72.688 56.584C72.688 52.12 71.464 48.568 69.016 45.928C66.616 43.24 63.4 41.896 59.368 41.896C55.288 41.896 52.024 43.216 49.576 45.856C47.176 48.496 45.976 52.072 45.976 56.584C45.976 61.048 47.176 64.624 49.576 67.312C52.024 69.952 55.288 71.272 59.368 71.272Z" fill="#E0E0E0"/>
<path d="M46.264 79.192L45.2855 80.9363L45.2945 80.9413L46.264 79.192ZM36.832 69.976L35.1007 70.9772L35.1078 70.9896L35.1152 71.0019L36.832 69.976ZM36.832 43.264L35.1152 42.2381L35.1105 42.2458L35.106 42.2536L36.832 43.264ZM46.264 34.048L45.2945 32.2987L45.2855 32.3037L46.264 34.048ZM72.4 34.048L71.4215 35.7923L71.4305 35.7973L72.4 34.048ZM81.76 43.264L80.0248 44.2586L80.0294 44.2665L80.034 44.2744L81.76 43.264ZM81.76 69.976L83.4861 70.9864L83.4913 70.9772L81.76 69.976ZM72.4 79.192L73.3785 80.9363L73.3785 80.9363L72.4 79.192ZM69.016 67.24L67.5373 65.8933L67.5307 65.9006L67.5241 65.908L69.016 67.24ZM69.016 45.928L67.5241 47.26L67.5367 47.2741L67.5495 47.2879L69.016 45.928ZM49.576 45.856L48.1095 44.4961L48.1028 44.5034L48.0961 44.5107L49.576 45.856ZM49.576 67.312L48.0841 68.644L48.0967 68.6581L48.1095 68.6719L49.576 67.312ZM59.368 80.504C54.94 80.504 50.9078 79.479 47.2335 77.4427L45.2945 80.9413C49.5882 83.321 54.292 84.504 59.368 84.504V80.504ZM47.2425 77.4477C43.6162 75.4134 40.7247 72.5913 38.5488 68.9501L35.1152 71.0019C37.6433 75.2327 41.0398 78.5546 45.2855 80.9363L47.2425 77.4477ZM38.5633 68.9747C36.4484 65.3176 35.376 61.2034 35.376 56.584H31.376C31.376 61.8526 32.6076 66.6664 35.1007 70.9772L38.5633 68.9747ZM35.376 56.584C35.376 51.9643 36.4484 47.8783 38.558 44.2744L35.106 42.2536C32.6076 46.5217 31.376 51.3157 31.376 56.584H35.376ZM38.5488 44.2899C40.7247 40.6487 43.6162 37.8266 47.2425 35.7923L45.2855 32.3037C41.0398 34.6854 37.6433 38.0073 35.1152 42.2381L38.5488 44.2899ZM47.2335 35.7973C50.9078 33.761 54.94 32.736 59.368 32.736V28.736C54.292 28.736 49.5882 29.919 45.2945 32.2987L47.2335 35.7973ZM59.368 32.736C63.7961 32.736 67.8004 33.7609 71.4215 35.7923L73.3785 32.3037C69.1276 29.9191 64.4439 28.736 59.368 28.736V32.736ZM71.4305 35.7973C75.0965 37.8291 77.9511 40.6407 80.0248 44.2586L83.4952 42.2694C81.0569 38.0153 77.6715 34.6829 73.3695 32.2987L71.4305 35.7973ZM80.034 44.2744C82.1436 47.8783 83.216 51.9643 83.216 56.584H87.216C87.216 51.3157 85.9844 46.5217 83.486 42.2536L80.034 44.2744ZM83.216 56.584C83.216 61.2034 82.1436 65.3176 80.0287 68.9747L83.4913 70.9772C85.9844 66.6664 87.216 61.8526 87.216 56.584H83.216ZM80.034 68.9656C77.9075 72.5983 75.0441 75.4155 71.4215 77.4477L73.3785 80.9363C77.6279 78.5525 81.0045 75.2257 83.486 70.9864L80.034 68.9656ZM71.4215 77.4477C67.8004 79.4791 63.7961 80.504 59.368 80.504V84.504C64.4439 84.504 69.1276 83.3209 73.3785 80.9363L71.4215 77.4477ZM59.368 73.272C63.8943 73.272 67.6809 71.7382 70.5079 68.572L67.5241 65.908C65.5511 68.1178 62.9057 69.272 59.368 69.272V73.272ZM70.4947 68.5867C73.3468 65.4549 74.688 61.3857 74.688 56.584H70.688C70.688 60.6143 69.5812 63.6491 67.5373 65.8933L70.4947 68.5867ZM74.688 56.584C74.688 51.7423 73.3508 47.6614 70.4825 44.5681L67.5495 47.2879C69.5772 49.4746 70.688 52.4977 70.688 56.584H74.688ZM70.5079 44.596C67.6809 41.4298 63.8943 39.896 59.368 39.896V43.896C62.9057 43.896 65.5511 45.0502 67.5241 47.26L70.5079 44.596ZM59.368 39.896C54.8131 39.896 50.9882 41.3916 48.1095 44.4961L51.0425 47.2159C53.0598 45.0404 55.7629 43.896 59.368 43.896V39.896ZM48.0961 44.5107C45.2797 47.6087 43.976 51.711 43.976 56.584H47.976C47.976 52.433 49.0723 49.3833 51.0559 47.2013L48.0961 44.5107ZM43.976 56.584C43.976 61.4171 45.2837 65.5076 48.0841 68.644L51.0679 65.98C49.0683 63.7404 47.976 60.6789 47.976 56.584H43.976ZM48.1095 68.6719C50.9882 71.7764 54.8131 73.272 59.368 73.272V69.272C55.7629 69.272 53.0598 68.1276 51.0425 65.9521L48.1095 68.6719Z" fill="#E0E0E0"/>
</svg>
