<svg width="96" height="88" viewBox="0 0 96 88" fill="none" xmlns="http://www.w3.org/2000/svg">
<path d="M0 0H96V78C96 83.5228 91.5228 88 86 88H10C4.47715 88 0 83.5228 0 78V0Z" fill="url(#paint0_linear_1001_243)"/>
<path d="M35.768 65L18.776 42.68V65H6.464V14.456H18.776V36.632L35.624 14.456H50.096L30.512 39.224L50.816 65H35.768Z" fill="#E0E0E0"/>
<path d="M35.768 65L34.9723 65.6057L35.2725 66H35.768V65ZM18.776 42.68L19.5717 42.0743L17.776 39.7156V42.68H18.776ZM18.776 65V66H19.776V65H18.776ZM6.464 65H5.464V66H6.464V65ZM6.464 14.456V13.456H5.464V14.456H6.464ZM18.776 14.456H19.776V13.456H18.776V14.456ZM18.776 36.632H17.776V39.6013L19.5723 37.237L18.776 36.632ZM35.624 14.456V13.456H35.1279L34.8277 13.851L35.624 14.456ZM50.096 14.456L50.8804 15.0762L52.1615 13.456H50.096V14.456ZM30.512 39.224L29.7276 38.6038L29.2381 39.2228L29.7264 39.8428L30.512 39.224ZM50.816 65V66H52.8767L51.6016 64.3812L50.816 65ZM36.5637 64.3943L19.5717 42.0743L17.9803 43.2857L34.9723 65.6057L36.5637 64.3943ZM17.776 42.68V65H19.776V42.68H17.776ZM18.776 64H6.464V66H18.776V64ZM7.464 65V14.456H5.464V65H7.464ZM6.464 15.456H18.776V13.456H6.464V15.456ZM17.776 14.456V36.632H19.776V14.456H17.776ZM19.5723 37.237L36.4203 15.061L34.8277 13.851L17.9797 36.027L19.5723 37.237ZM35.624 15.456H50.096V13.456H35.624V15.456ZM49.3116 13.8358L29.7276 38.6038L31.2964 39.8442L50.8804 15.0762L49.3116 13.8358ZM29.7264 39.8428L50.0304 65.6188L51.6016 64.3812L31.2976 38.6052L29.7264 39.8428ZM50.816 64H35.768V66H50.816V64Z" fill="#E0E0E0"/>
<path d="M61.368 82.504C56.616 82.504 52.248 81.4 48.264 79.192C44.328 76.984 41.184 73.912 38.832 69.976C36.528 65.992 35.376 61.528 35.376 56.584C35.376 51.64 36.528 47.2 38.832 43.264C41.184 39.328 44.328 36.256 48.264 34.048C52.248 31.84 56.616 30.736 61.368 30.736C66.12 30.736 70.464 31.84 74.4 34.048C78.384 36.256 81.504 39.328 83.76 43.264C86.064 47.2 87.216 51.64 87.216 56.584C87.216 61.528 86.064 65.992 83.76 69.976C81.456 73.912 78.336 76.984 74.4 79.192C70.464 81.4 66.12 82.504 61.368 82.504ZM61.368 71.272C65.4 71.272 68.616 69.928 71.016 67.24C73.464 64.552 74.688 61 74.688 56.584C74.688 52.12 73.464 48.568 71.016 45.928C68.616 43.24 65.4 41.896 61.368 41.896C57.288 41.896 54.024 43.216 51.576 45.856C49.176 48.496 47.976 52.072 47.976 56.584C47.976 61.048 49.176 64.624 51.576 67.312C54.024 69.952 57.288 71.272 61.368 71.272Z" fill="#E0E0E0"/>
<path d="M48.264 79.192L47.2855 80.9363L47.2945 80.9413L48.264 79.192ZM38.832 69.976L37.1007 70.9772L37.1078 70.9896L37.1152 71.0019L38.832 69.976ZM38.832 43.264L37.1152 42.2381L37.1105 42.2458L37.106 42.2536L38.832 43.264ZM48.264 34.048L47.2945 32.2987L47.2855 32.3037L48.264 34.048ZM74.4 34.048L73.4215 35.7923L73.4305 35.7973L74.4 34.048ZM83.76 43.264L82.0248 44.2586L82.0294 44.2665L82.034 44.2744L83.76 43.264ZM83.76 69.976L85.4861 70.9864L85.4913 70.9772L83.76 69.976ZM74.4 79.192L75.3785 80.9363L75.3785 80.9363L74.4 79.192ZM71.016 67.24L69.5373 65.8933L69.5307 65.9006L69.5241 65.908L71.016 67.24ZM71.016 45.928L69.5241 47.26L69.5367 47.2741L69.5495 47.2879L71.016 45.928ZM51.576 45.856L50.1095 44.4961L50.1028 44.5034L50.0961 44.5107L51.576 45.856ZM51.576 67.312L50.0841 68.644L50.0967 68.6581L50.1095 68.6719L51.576 67.312ZM61.368 80.504C56.94 80.504 52.9078 79.479 49.2335 77.4427L47.2945 80.9413C51.5882 83.321 56.292 84.504 61.368 84.504V80.504ZM49.2425 77.4477C45.6162 75.4134 42.7247 72.5913 40.5488 68.9501L37.1152 71.0019C39.6433 75.2327 43.0398 78.5546 47.2855 80.9363L49.2425 77.4477ZM40.5633 68.9747C38.4484 65.3176 37.376 61.2034 37.376 56.584H33.376C33.376 61.8526 34.6076 66.6664 37.1007 70.9772L40.5633 68.9747ZM37.376 56.584C37.376 51.9643 38.4484 47.8783 40.558 44.2744L37.106 42.2536C34.6076 46.5217 33.376 51.3157 33.376 56.584H37.376ZM40.5488 44.2899C42.7247 40.6487 45.6162 37.8266 49.2425 35.7923L47.2855 32.3037C43.0398 34.6854 39.6433 38.0073 37.1152 42.2381L40.5488 44.2899ZM49.2335 35.7973C52.9078 33.761 56.94 32.736 61.368 32.736V28.736C56.292 28.736 51.5882 29.919 47.2945 32.2987L49.2335 35.7973ZM61.368 32.736C65.7961 32.736 69.8004 33.7609 73.4215 35.7923L75.3785 32.3037C71.1276 29.9191 66.4439 28.736 61.368 28.736V32.736ZM73.4305 35.7973C77.0965 37.8291 79.9511 40.6407 82.0248 44.2586L85.4952 42.2694C83.0569 38.0153 79.6715 34.6829 75.3695 32.2987L73.4305 35.7973ZM82.034 44.2744C84.1436 47.8783 85.216 51.9643 85.216 56.584H89.216C89.216 51.3157 87.9844 46.5217 85.486 42.2536L82.034 44.2744ZM85.216 56.584C85.216 61.2034 84.1436 65.3176 82.0287 68.9747L85.4913 70.9772C87.9844 66.6664 89.216 61.8526 89.216 56.584H85.216ZM82.034 68.9656C79.9075 72.5983 77.0441 75.4155 73.4215 77.4477L75.3785 80.9363C79.6279 78.5525 83.0045 75.2257 85.486 70.9864L82.034 68.9656ZM73.4215 77.4477C69.8004 79.4791 65.7961 80.504 61.368 80.504V84.504C66.4439 84.504 71.1276 83.3209 75.3785 80.9363L73.4215 77.4477ZM61.368 73.272C65.8943 73.272 69.6809 71.7382 72.5079 68.572L69.5241 65.908C67.5511 68.1178 64.9057 69.272 61.368 69.272V73.272ZM72.4947 68.5867C75.3468 65.4549 76.688 61.3857 76.688 56.584H72.688C72.688 60.6143 71.5812 63.6491 69.5373 65.8933L72.4947 68.5867ZM76.688 56.584C76.688 51.7423 75.3508 47.6614 72.4825 44.5681L69.5495 47.2879C71.5772 49.4746 72.688 52.4977 72.688 56.584H76.688ZM72.5079 44.596C69.6809 41.4298 65.8943 39.896 61.368 39.896V43.896C64.9057 43.896 67.5511 45.0502 69.5241 47.26L72.5079 44.596ZM61.368 39.896C56.8131 39.896 52.9882 41.3916 50.1095 44.4961L53.0425 47.2159C55.0598 45.0404 57.7629 43.896 61.368 43.896V39.896ZM50.0961 44.5107C47.2797 47.6087 45.976 51.711 45.976 56.584H49.976C49.976 52.433 51.0723 49.3833 53.0559 47.2013L50.0961 44.5107ZM45.976 56.584C45.976 61.4171 47.2837 65.5076 50.0841 68.644L53.0679 65.98C51.0683 63.7404 49.976 60.6789 49.976 56.584H45.976ZM50.1095 68.6719C52.9882 71.7764 56.8131 73.272 61.368 73.272V69.272C57.7629 69.272 55.0598 68.1276 53.0425 65.9521L50.1095 68.6719Z" fill="#E0E0E0"/>
<defs>
<linearGradient id="paint0_linear_1001_243" x1="2.54118" y1="48.1905" x2="88.6726" y2="47.886" gradientUnits="userSpaceOnUse">
<stop stop-color="#595EF2"/>
<stop offset="1" stop-color="#E21A7B"/>
</linearGradient>
</defs>
</svg>
