<svg width="727" height="140" viewBox="0 0 727 140" fill="none" xmlns="http://www.w3.org/2000/svg">
<path d="M1.50049 70.3467C9.87123 44.0799 33.0853 33.0597 60.4221 32.102C85.957 31.2075 115.827 38.9197 139.71 47.1822C258.55 88.296 133.048 175.883 140.332 89.0026C142.053 68.4672 153.583 53.552 166.761 38.6316C186.635 16.1297 207.271 12.7477 236.565 10.6477C287.879 6.9692 325.581 22.692 352.698 72.8341C379.929 123.186 317.217 120.903 317.718 86.826C318.114 59.9347 350.603 15.417 378.35 7.07198C403.174 -0.393952 447.06 -1.33817 471.708 10.3368C494.822 21.2859 511.458 48.5283 523.866 70.0357C531.564 83.3779 534.878 104.711 525.188 118.152C503.43 148.333 459.774 145.404 461.835 104.86C462.609 89.6426 473.838 72.9855 483.601 61.796C494.281 49.5552 504.267 39.2933 520.602 28.9927C589.273 -14.3128 699.534 35.2538 724.884 67.5483" stroke="url(#paint0_linear_2005_27264)" stroke-width="3" stroke-linecap="round"/>
<defs>
<linearGradient id="paint0_linear_2005_27264" x1="638.994" y1="69.9386" x2="1.50049" y2="69.9386" gradientUnits="userSpaceOnUse">
<stop stop-color="#DBA6F4"/>
<stop offset="1" stop-color="#A981FE"/>
</linearGradient>
</defs>
</svg>
